<?xml version="1.0" encoding="UTF-8"?>
<svg version="1.1" xmlns="http://www.w3.org/2000/svg" width="500" height="500">
<path d="M0 0 C0.928125 0.7115625 0.928125 0.7115625 1.875 1.4375 C1.875 2.0975 1.875 2.7575 1.875 3.4375 C2.535 3.4375 3.195 3.4375 3.875 3.4375 C4.83197122 4.96332099 5.7155307 6.53548227 6.5625 8.125 C9.39954695 13.07757332 12.12232461 15.39578775 16.875 18.4375 C16.875 19.0975 16.875 19.7575 16.875 20.4375 C17.535 20.4375 18.195 20.4375 18.875 20.4375 C17.38458227 24.23129058 15.18437488 26.12093758 11.875 28.4375 C11.215 28.4375 10.555 28.4375 9.875 28.4375 C9.875 29.0975 9.875 29.7575 9.875 30.4375 C11.525 30.7675 13.175 31.0975 14.875 31.4375 C14.545 33.0875 14.215 34.7375 13.875 36.4375 C12.225 36.4375 10.575 36.4375 8.875 36.4375 C8.545 35.7775 8.215 35.1175 7.875 34.4375 C7.46507812 34.9428125 7.05515625 35.448125 6.6328125 35.96875 C6.09398437 36.6184375 5.55515625 37.268125 5 37.9375 C4.46632813 38.5871875 3.93265625 39.236875 3.3828125 39.90625 C2.88523437 40.4115625 2.38765625 40.916875 1.875 41.4375 C1.215 41.4375 0.555 41.4375 -0.125 41.4375 C-0.125 42.0975 -0.125 42.7575 -0.125 43.4375 C-7.61763141 48.53886607 -16.33161046 48.87871264 -25.125 47.4375 C-31.6817129 44.93000034 -35.8968899 39.85815397 -40.125 34.4375 C-40.455 35.0975 -40.785 35.7575 -41.125 36.4375 C-42.775 36.4375 -44.425 36.4375 -46.125 36.4375 C-46.455 34.7875 -46.785 33.1375 -47.125 31.4375 C-45.805 30.7775 -44.485 30.1175 -43.125 29.4375 C-43.7025 28.95539063 -44.28 28.47328125 -44.875 27.9765625 C-45.6175 27.34492188 -46.36 26.71328125 -47.125 26.0625 C-47.8675 25.43601563 -48.61 24.80953125 -49.375 24.1640625 C-49.9525 23.59429687 -50.53 23.02453125 -51.125 22.4375 C-51.125 21.7775 -51.125 21.1175 -51.125 20.4375 C-50.465 20.4375 -49.805 20.4375 -49.125 20.4375 C-49.125 19.7775 -49.125 19.1175 -49.125 18.4375 C-47.49873596 17.05517557 -45.8324998 15.71812485 -44.125 14.4375 C-45.115 13.7775 -46.105 13.1175 -47.125 12.4375 C-46.795 10.7875 -46.465 9.1375 -46.125 7.4375 C-44.475 7.4375 -42.825 7.4375 -41.125 7.4375 C-40.795 8.0975 -40.465 8.7575 -40.125 9.4375 C-39.465 8.1175 -38.805 6.7975 -38.125 5.4375 C-37.465 5.4375 -36.805 5.4375 -36.125 5.4375 C-36.125 4.7775 -36.125 4.1175 -36.125 3.4375 C-35.465 3.4375 -34.805 3.4375 -34.125 3.4375 C-34.125 2.7775 -34.125 2.1175 -34.125 1.4375 C-32.54425436 0.61997697 -30.96028777 -0.19131997 -29.375 -1 C-28.05242187 -1.67869141 -28.05242187 -1.67869141 -26.703125 -2.37109375 C-17.66096494 -6.54966772 -8.58562109 -4.29281054 0 0 Z M-14.125 0.4375 C-13.795 1.4275 -13.465 2.4175 -13.125 3.4375 C-13.125 2.7775 -13.125 2.1175 -13.125 1.4375 C-12.135 1.1075 -11.145 0.7775 -10.125 0.4375 C-11.445 0.4375 -12.765 0.4375 -14.125 0.4375 Z M-6.125 3.4375 C-5.795 4.4275 -5.465 5.4175 -5.125 6.4375 C-4.465 5.7775 -3.805 5.1175 -3.125 4.4375 C-4.115 4.1075 -5.105 3.7775 -6.125 3.4375 Z M-28.125 3.4375 C-28.785 4.0975 -29.445 4.7575 -30.125 5.4375 C-29.135 5.4375 -28.145 5.4375 -27.125 5.4375 C-27.455 4.7775 -27.785 4.1175 -28.125 3.4375 Z M-14.125 4.4375 C-13.125 6.4375 -13.125 6.4375 -13.125 6.4375 Z M-26.125 6.4375 C-25.795 7.4275 -25.465 8.4175 -25.125 9.4375 C-25.125 8.4475 -25.125 7.4575 -25.125 6.4375 C-25.455 6.4375 -25.785 6.4375 -26.125 6.4375 Z M-7.125 6.4375 C-7.785 7.0975 -8.445 7.7575 -9.125 8.4375 C-8.135 8.7675 -7.145 9.0975 -6.125 9.4375 C-6.455 8.4475 -6.785 7.4575 -7.125 6.4375 Z M-33.125 8.4375 C-33.785 9.7575 -34.445 11.0775 -35.125 12.4375 C-34.135 12.1075 -33.145 11.7775 -32.125 11.4375 C-32.455 10.4475 -32.785 9.4575 -33.125 8.4375 Z M-0.125 8.4375 C-0.125 9.4275 -0.125 10.4175 -0.125 11.4375 C0.865 11.7675 1.855 12.0975 2.875 12.4375 C2.875 11.7775 2.875 11.1175 2.875 10.4375 C2.215 10.4375 1.555 10.4375 0.875 10.4375 C0.545 9.7775 0.215 9.1175 -0.125 8.4375 Z M-20.9375 11.9375 C-21.329375 12.4325 -21.72125 12.9275 -22.125 13.4375 C-21.135 13.7675 -20.145 14.0975 -19.125 14.4375 C-18.795 13.7775 -18.465 13.1175 -18.125 12.4375 C-16.0625 11.3125 -16.0625 11.3125 -14.125 10.4375 C-17.84236641 10.08849442 -17.84236641 10.08849442 -20.9375 11.9375 Z M-14.125 11.4375 C-14.125 12.0975 -14.125 12.7575 -14.125 13.4375 C-12.805 13.1075 -11.485 12.7775 -10.125 12.4375 C-11.445 12.1075 -12.765 11.7775 -14.125 11.4375 Z M-31.125 12.4375 C-30.795 13.4275 -30.465 14.4175 -30.125 15.4375 C-29.795 14.4475 -29.465 13.4575 -29.125 12.4375 C-29.785 12.4375 -30.445 12.4375 -31.125 12.4375 Z M-3.125 12.4375 C-2.795 14.0875 -2.465 15.7375 -2.125 17.4375 C-1.795 17.4375 -1.465 17.4375 -1.125 17.4375 C-1.125 15.7875 -1.125 14.1375 -1.125 12.4375 C-1.785 12.4375 -2.445 12.4375 -3.125 12.4375 Z M-37.125 14.4375 C-38.48327971 16.08389965 -39.81754251 17.75045807 -41.125 19.4375 C-39.475 19.4375 -37.825 19.4375 -36.125 19.4375 C-36.125 17.7875 -36.125 16.1375 -36.125 14.4375 C-36.455 14.4375 -36.785 14.4375 -37.125 14.4375 Z M-25.125 15.4375 C-25.455 16.4275 -25.785 17.4175 -26.125 18.4375 C-25.135 18.1075 -24.145 17.7775 -23.125 17.4375 C-23.785 16.7775 -24.445 16.1175 -25.125 15.4375 Z M-19.125 15.4375 C-18.125 17.4375 -18.125 17.4375 -18.125 17.4375 Z M-15.125 15.4375 C-14.465 16.0975 -13.805 16.7575 -13.125 17.4375 C-13.125 16.7775 -13.125 16.1175 -13.125 15.4375 C-13.785 15.4375 -14.445 15.4375 -15.125 15.4375 Z M-8.125 15.4375 C-8.455 16.4275 -8.785 17.4175 -9.125 18.4375 C-8.135 18.7675 -7.145 19.0975 -6.125 19.4375 C-6.455 18.1175 -6.785 16.7975 -7.125 15.4375 C-7.455 15.4375 -7.785 15.4375 -8.125 15.4375 Z M3.875 15.4375 C3.545 16.7575 3.215 18.0775 2.875 19.4375 C4.525 19.4375 6.175 19.4375 7.875 19.4375 C7.545 18.7775 7.215 18.1175 6.875 17.4375 C6.215 17.4375 5.555 17.4375 4.875 17.4375 C4.545 16.7775 4.215 16.1175 3.875 15.4375 Z M-1.125 17.4375 C-0.125 19.4375 -0.125 19.4375 -0.125 19.4375 Z M-22.125 18.4375 C-21.125 20.4375 -21.125 20.4375 -21.125 20.4375 Z M-6.125 19.4375 C-5.125 21.4375 -5.125 21.4375 -5.125 21.4375 Z M-43.125 20.4375 C-43.455 21.0975 -43.785 21.7575 -44.125 22.4375 C-43.465 22.4375 -42.805 22.4375 -42.125 22.4375 C-42.455 21.7775 -42.785 21.1175 -43.125 20.4375 Z M9.875 20.4375 C10.205 21.4275 10.535 22.4175 10.875 23.4375 C10.875 22.4475 10.875 21.4575 10.875 20.4375 C10.545 20.4375 10.215 20.4375 9.875 20.4375 Z M-11.125 23.4375 C-11.455 24.0975 -11.785 24.7575 -12.125 25.4375 C-11.135 25.7675 -10.145 26.0975 -9.125 26.4375 C-8.465 27.0975 -7.805 27.7575 -7.125 28.4375 C-6.795 27.1175 -6.465 25.7975 -6.125 24.4375 C-7.775 24.1075 -9.425 23.7775 -11.125 23.4375 Z M-40.125 24.4375 C-38.805 25.7575 -37.485 27.0775 -36.125 28.4375 C-36.125 27.1175 -36.125 25.7975 -36.125 24.4375 C-37.445 24.4375 -38.765 24.4375 -40.125 24.4375 Z M-26.125 24.4375 C-26.125 25.0975 -26.125 25.7575 -26.125 26.4375 C-25.135 26.1075 -24.145 25.7775 -23.125 25.4375 C-24.115 25.1075 -25.105 24.7775 -26.125 24.4375 Z M3.875 24.4375 C4.205 25.7575 4.535 27.0775 4.875 28.4375 C4.875 27.7775 4.875 27.1175 4.875 26.4375 C5.865 26.1075 6.855 25.7775 7.875 25.4375 C6.555 25.1075 5.235 24.7775 3.875 24.4375 Z M-19.125 26.4375 C-18.795 27.0975 -18.465 27.7575 -18.125 28.4375 C-17.795 27.7775 -17.465 27.1175 -17.125 26.4375 C-17.785 26.4375 -18.445 26.4375 -19.125 26.4375 Z M-15.125 26.4375 C-14.465 27.0975 -13.805 27.7575 -13.125 28.4375 C-13.125 27.7775 -13.125 27.1175 -13.125 26.4375 C-13.785 26.4375 -14.445 26.4375 -15.125 26.4375 Z M-2.125 26.4375 C-1.125 29.4375 -1.125 29.4375 -1.125 29.4375 Z M-31.125 28.4375 C-31.125 29.4275 -31.125 30.4175 -31.125 31.4375 C-30.465 31.1075 -29.805 30.7775 -29.125 30.4375 C-29.785 29.7775 -30.445 29.1175 -31.125 28.4375 Z M-20.125 29.4375 C-20.785 30.0975 -21.445 30.7575 -22.125 31.4375 C-21.135 31.4375 -20.145 31.4375 -19.125 31.4375 C-19.455 30.7775 -19.785 30.1175 -20.125 29.4375 Z M-13.125 30.4375 C-13.455 31.0975 -13.785 31.7575 -14.125 32.4375 C-12.805 31.7775 -11.485 31.1175 -10.125 30.4375 C-11.115 30.4375 -12.105 30.4375 -13.125 30.4375 Z M1.875 30.4375 C2.875 32.4375 2.875 32.4375 2.875 32.4375 Z M-35.125 31.4375 C-34.465 32.7575 -33.805 34.0775 -33.125 35.4375 C-32.795 34.4475 -32.465 33.4575 -32.125 32.4375 C-33.115 32.1075 -34.105 31.7775 -35.125 31.4375 Z M-0.125 32.4375 C0.205 33.4275 0.535 34.4175 0.875 35.4375 C1.205 34.4475 1.535 33.4575 1.875 32.4375 C1.215 32.4375 0.555 32.4375 -0.125 32.4375 Z M-26.125 34.4375 C-25.795 35.4275 -25.465 36.4175 -25.125 37.4375 C-25.125 36.4475 -25.125 35.4575 -25.125 34.4375 C-25.455 34.4375 -25.785 34.4375 -26.125 34.4375 Z M-7.125 34.4375 C-7.785 35.0975 -8.445 35.7575 -9.125 36.4375 C-8.135 36.7675 -7.145 37.0975 -6.125 37.4375 C-6.455 36.4475 -6.785 35.4575 -7.125 34.4375 Z M-14.125 37.4375 C-14.125 39.0875 -14.125 40.7375 -14.125 42.4375 C-13.135 42.1075 -12.145 41.7775 -11.125 41.4375 C-11.785 41.4375 -12.445 41.4375 -13.125 41.4375 C-13.455 40.1175 -13.785 38.7975 -14.125 37.4375 Z M-29.125 38.4375 C-28.795 39.0975 -28.465 39.7575 -28.125 40.4375 C-27.465 40.1075 -26.805 39.7775 -26.125 39.4375 C-27.115 39.1075 -28.105 38.7775 -29.125 38.4375 Z M-5.125 38.4375 C-5.455 39.0975 -5.785 39.7575 -6.125 40.4375 C-5.135 40.1075 -4.145 39.7775 -3.125 39.4375 C-3.785 39.1075 -4.445 38.7775 -5.125 38.4375 Z M-19.125 37.4375 C-19.125 38.7575 -19.125 40.0775 -19.125 41.4375 C-20.775 41.4375 -22.425 41.4375 -24.125 41.4375 C-24.125 41.7675 -24.125 42.0975 -24.125 42.4375 C-22.145 42.4375 -20.165 42.4375 -18.125 42.4375 C-18.125 40.7875 -18.125 39.1375 -18.125 37.4375 C-18.455 37.4375 -18.785 37.4375 -19.125 37.4375 Z " fill="#EFE7E5" transform="translate(267.125,223.5625)"/>
<path d="M0 0 C0.99 0.33 1.98 0.66 3 1 C4.125 6.75 4.125 6.75 3 9 C2.34 9 1.68 9 1 9 C1 9.66 1 10.32 1 11 C16.84 10.67 32.68 10.34 49 10 C48.01 9.01 48.01 9.01 47 8 C46.875 4.875 46.875 4.875 47 2 C47.66 2 48.32 2 49 2 C49 1.34 49 0.68 49 0 C49.99 0.33 50.98 0.66 52 1 C52.2165625 1.9590625 52.2165625 1.9590625 52.4375 2.9375 C52.80104993 5.20311706 52.80104993 5.20311706 55.0625 6.25 C55.701875 6.4975 56.34125 6.745 57 7 C55.25 10.875 55.25 10.875 53 12 C53 14.31 53 16.62 53 19 C51.60724602 19.00213753 51.60724602 19.00213753 50.18635559 19.00431824 C41.43155576 19.02215547 32.6772611 19.06379037 23.92270374 19.13209057 C19.42195295 19.16636634 14.92154179 19.19147142 10.4206543 19.19555664 C6.07611332 19.1998384 1.73233858 19.22829018 -2.61196327 19.27343178 C-4.26848193 19.28641084 -5.92509227 19.29071298 -7.5816555 19.28615379 C-9.90447865 19.28125029 -12.22506007 19.30732391 -14.54760742 19.34057617 C-15.23093643 19.33195053 -15.91426544 19.32332489 -16.61830139 19.31443787 C-20.41416058 19.40540186 -21.94486045 19.95546614 -24.93843079 22.37324524 C-27.19076137 24.8077 -27.19076137 24.8077 -27.4375 27.6875 C-27.18973497 30.18582291 -27.18973497 30.18582291 -25 32 C-22.89179203 31.6814823 -22.89179203 31.6814823 -21 31 C-21.33 29.02 -21.66 27.04 -22 25 C-21.34 25 -20.68 25 -20 25 C-20 24.34 -20 23.68 -20 23 C-16.25 21.875 -16.25 21.875 -14 23 C-11.82424625 27.00796743 -11.95304747 29.62183487 -13 34 C-13.33 34.99 -13.66 35.98 -14 37 C-14.66 37 -15.32 37 -16 37 C-16 37.66 -16 38.32 -16 39 C-16.99 39.495 -16.99 39.495 -18 40 C-15.55519921 39.81171228 -15.55519921 39.81171228 -13 39 C-11.13122397 36.13665503 -10.74882297 33.88067125 -10.8125 30.5 C-10.81894531 29.7471875 -10.82539063 28.994375 -10.83203125 28.21875 C-10.93591891 25.97813605 -10.93591891 25.97813605 -11.57421875 23.78125 C-11.71472656 23.1934375 -11.85523438 22.605625 -12 22 C-11 21 -11 21 -7.5 20.875 C-4 21 -4 21 -3 22 C-1.71059275 29.29361674 -0.89836411 37.39693528 -5.2265625 43.8203125 C-9.09885268 48.10675136 -13.30747574 49.70501886 -19.14233398 50.17114258 C-21.39028513 50.23108465 -23.62663391 50.22432669 -25.875 50.1875 C-26.64585937 50.18685547 -27.41671875 50.18621094 -28.2109375 50.18554688 C-33.8592017 50.1407983 -33.8592017 50.1407983 -35 49 C-35.04092937 46.66702567 -35.04241723 44.33294775 -35 42 C-33.02 41.34 -31.04 40.68 -29 40 C-29.66 39.67 -30.32 39.34 -31 39 C-31 38.34 -31 37.68 -31 37 C-31.66 37 -32.32 37 -33 37 C-35.37310654 33.44034019 -35.26915041 31.78037776 -35.25 27.5625 C-35.25515625 26.42941406 -35.2603125 25.29632813 -35.265625 24.12890625 C-35.01398568 21.16474309 -34.54596941 19.49686329 -33 17 C-32.34 17 -31.68 17 -31 17 C-30.67 16.01 -30.34 15.02 -30 14 C-24.83167961 10.55445307 -19.22947814 10.74643602 -13.1875 10.4375 C-12.00510742 10.37272461 -12.00510742 10.37272461 -10.79882812 10.30664062 C-8.86605785 10.20121679 -6.93304974 10.10016906 -5 10 C-5 8.68 -5 7.36 -5 6 C-4.01 5.67 -3.02 5.34 -2 5 C-0.78130071 2.49552484 -0.78130071 2.49552484 0 0 Z " fill="#F2EDED" transform="translate(225,264)"/>
<path d="M0 0 C0 0.66 0 1.32 0 2 C0.66 2 1.32 2 2 2 C5.25362883 6.88044325 4.57544685 12.294655 4 18 C2.53488718 22.02528419 -0.3417284 24.82790124 -4 27 C-6.86592164 27.86319735 -9.5631203 28.17528272 -12.546875 28.31640625 C-13.39121094 28.35830078 -14.23554688 28.40019531 -15.10546875 28.44335938 C-15.97816406 28.48267578 -16.85085938 28.52199219 -17.75 28.5625 C-18.63816406 28.60568359 -19.52632813 28.64886719 -20.44140625 28.69335938 C-22.62745963 28.79913615 -24.81362089 28.90122546 -27 29 C-26.505 29.99 -26.505 29.99 -26 31 C-26.495 31.99 -26.495 31.99 -27 33 C-28.485 33.495 -28.485 33.495 -30 34 C-30.73323796 36.01508358 -30.73323796 36.01508358 -31 38 C-32.32 38 -33.64 38 -35 38 C-36.25 31.375 -36.25 31.375 -34 28 C-49.18 28.33 -64.36 28.66 -80 29 C-79.505 32.465 -79.505 32.465 -79 36 C-79.495 36.99 -79.495 36.99 -80 38 C-81.32 38 -82.64 38 -84 38 C-84.33 37.34 -84.66 36.68 -85 36 C-85.33 37.32 -85.66 38.64 -86 40 C-87.65 39.34 -89.3 38.68 -91 38 C-91 36.35 -91 34.7 -91 33 C-90.01 33 -89.02 33 -88 33 C-88 31.68 -88 30.36 -88 29 C-96.25 28.67 -104.5 28.34 -113 28 C-113 25.36 -113 22.72 -113 20 C-111.08106682 19.99120064 -111.08106682 19.99120064 -109.12336731 19.98222351 C-97.07227762 19.92503171 -85.02136899 19.85228846 -72.97046375 19.76428509 C-66.77483735 19.71954143 -60.57927731 19.68029394 -54.38354492 19.65356445 C-48.40527012 19.62757161 -42.42725018 19.58719729 -36.44913292 19.53681374 C-34.16739762 19.52011789 -31.88561821 19.50862058 -29.60383034 19.50238609 C-26.40984958 19.49277479 -23.21652486 19.46475019 -20.02270508 19.43237305 C-19.07755539 19.43380814 -18.1324057 19.43524323 -17.15861511 19.4367218 C-10.56695196 19.34474032 -10.56695196 19.34474032 -5 16 C-4.10407917 12.40080577 -4.10407917 12.40080577 -4 9 C-5.32 8.34 -6.64 7.68 -8 7 C-8.66 7.66 -9.32 8.32 -10 9 C-9.67958603 11.60280568 -9.67958603 11.60280568 -9 14 C-11.3125 15.5625 -11.3125 15.5625 -14 17 C-17 16 -17 16 -18.25 13.875 C-19.33435492 9.71830615 -18.93052287 5.86104573 -17 2 C-16.34 2 -15.68 2 -15 2 C-15 1.34 -15 0.68 -15 0 C-9.73914161 -2.71013917 -5.46308324 -1.82102775 0 0 Z " fill="#F5F2F1" transform="translate(308,188)"/>
<path d="M0 0 C0.928125 0.7115625 0.928125 0.7115625 1.875 1.4375 C1.875 2.0975 1.875 2.7575 1.875 3.4375 C2.535 3.4375 3.195 3.4375 3.875 3.4375 C4.83197122 4.96332099 5.7155307 6.53548227 6.5625 8.125 C9.39954695 13.07757332 12.12232461 15.39578775 16.875 18.4375 C16.875 19.0975 16.875 19.7575 16.875 20.4375 C17.535 20.4375 18.195 20.4375 18.875 20.4375 C18.38 21.9225 18.38 21.9225 17.875 23.4375 C16.885 22.7775 15.895 22.1175 14.875 21.4375 C15.205 20.7775 15.535 20.1175 15.875 19.4375 C14.885 19.9325 14.885 19.9325 13.875 20.4375 C12.49951844 20.52058638 11.12014204 20.54486016 9.7421875 20.53515625 C8.93652344 20.53193359 8.13085938 20.52871094 7.30078125 20.52539062 C6.45902344 20.51701172 5.61726563 20.50863281 4.75 20.5 C3.90050781 20.49548828 3.05101562 20.49097656 2.17578125 20.48632812 C0.07549091 20.47452874 -2.0247633 20.45659306 -4.125 20.4375 C-4.62 22.9125 -4.62 22.9125 -5.125 25.4375 C-6.011875 25.19 -6.89875 24.9425 -7.8125 24.6875 C-11.23147252 24.07642705 -11.23147252 24.07642705 -13.875 26.375 C-14.98875 27.3959375 -14.98875 27.3959375 -16.125 28.4375 C-16.785 28.4375 -17.445 28.4375 -18.125 28.4375 C-18.125 30.0875 -18.125 31.7375 -18.125 33.4375 C-19.445 33.4375 -20.765 33.4375 -22.125 33.4375 C-22.455 34.0975 -22.785 34.7575 -23.125 35.4375 C-21.475 35.7675 -19.825 36.0975 -18.125 36.4375 C-18.455 38.0875 -18.785 39.7375 -19.125 41.4375 C-22.095 41.9325 -22.095 41.9325 -25.125 42.4375 C-26.61 39.9625 -26.61 39.9625 -28.125 37.4375 C-27.135 36.7775 -26.145 36.1175 -25.125 35.4375 C-26.61 34.9425 -26.61 34.9425 -28.125 34.4375 C-27.465 33.7775 -26.805 33.1175 -26.125 32.4375 C-25.465 32.7675 -24.805 33.0975 -24.125 33.4375 C-25.115 29.9725 -25.115 29.9725 -26.125 26.4375 C-25.465 26.1075 -24.805 25.7775 -24.125 25.4375 C-25.115 24.7775 -26.105 24.1175 -27.125 23.4375 C-27.3125 20.3125 -27.3125 20.3125 -27.125 17.4375 C-26.135 17.4375 -25.145 17.4375 -24.125 17.4375 C-24.785 17.1075 -25.445 16.7775 -26.125 16.4375 C-26.125 15.7775 -26.125 15.1175 -26.125 14.4375 C-25.135 14.4375 -24.145 14.4375 -23.125 14.4375 C-22.795 13.7775 -22.465 13.1175 -22.125 12.4375 C-21.135 12.4375 -20.145 12.4375 -19.125 12.4375 C-19.785 12.4375 -20.445 12.4375 -21.125 12.4375 C-20.795 10.4575 -20.465 8.4775 -20.125 6.4375 C-21.115 7.4275 -22.105 8.4175 -23.125 9.4375 C-23.785 9.1075 -24.445 8.7775 -25.125 8.4375 C-26.115 9.9225 -26.115 9.9225 -27.125 11.4375 C-27.455 10.7775 -27.785 10.1175 -28.125 9.4375 C-27.795 8.7775 -27.465 8.1175 -27.125 7.4375 C-30.04017292 8.51151108 -31.90310176 9.21560176 -34.125 11.4375 C-33.135 11.7675 -32.145 12.0975 -31.125 12.4375 C-30.32546862 15.72446233 -30.02841064 17.14773192 -31.125 20.4375 C-35.085 20.4375 -39.045 20.4375 -43.125 20.4375 C-43.125 20.1075 -43.125 19.7775 -43.125 19.4375 C-40.815 19.4375 -38.505 19.4375 -36.125 19.4375 C-36.455 18.4475 -36.785 17.4575 -37.125 16.4375 C-39.105 17.4275 -39.105 17.4275 -41.125 18.4375 C-40.125 15.4375 -40.125 15.4375 -39.125 14.4375 C-41.435 14.1075 -43.745 13.7775 -46.125 13.4375 C-46.50718767 11.78135343 -46.83895102 10.11292976 -47.125 8.4375 C-46.125 7.4375 -46.125 7.4375 -43.5625 7.375 C-42.758125 7.395625 -41.95375 7.41625 -41.125 7.4375 C-40.795 8.0975 -40.465 8.7575 -40.125 9.4375 C-39.465 8.1175 -38.805 6.7975 -38.125 5.4375 C-37.465 5.4375 -36.805 5.4375 -36.125 5.4375 C-36.125 4.7775 -36.125 4.1175 -36.125 3.4375 C-35.465 3.4375 -34.805 3.4375 -34.125 3.4375 C-34.125 2.7775 -34.125 2.1175 -34.125 1.4375 C-32.54425436 0.61997697 -30.96028777 -0.19131997 -29.375 -1 C-28.05242187 -1.67869141 -28.05242187 -1.67869141 -26.703125 -2.37109375 C-17.66096494 -6.54966772 -8.58562109 -4.29281054 0 0 Z M-14.125 0.4375 C-13.795 1.4275 -13.465 2.4175 -13.125 3.4375 C-13.125 2.7775 -13.125 2.1175 -13.125 1.4375 C-12.135 1.1075 -11.145 0.7775 -10.125 0.4375 C-11.445 0.4375 -12.765 0.4375 -14.125 0.4375 Z M-6.125 3.4375 C-5.795 4.4275 -5.465 5.4175 -5.125 6.4375 C-4.465 5.7775 -3.805 5.1175 -3.125 4.4375 C-4.115 4.1075 -5.105 3.7775 -6.125 3.4375 Z M-28.125 3.4375 C-28.785 4.0975 -29.445 4.7575 -30.125 5.4375 C-29.135 5.4375 -28.145 5.4375 -27.125 5.4375 C-27.455 4.7775 -27.785 4.1175 -28.125 3.4375 Z M-14.125 4.4375 C-13.125 6.4375 -13.125 6.4375 -13.125 6.4375 Z M-7.125 6.4375 C-7.785 7.0975 -8.445 7.7575 -9.125 8.4375 C-8.135 8.7675 -7.145 9.0975 -6.125 9.4375 C-6.455 8.4475 -6.785 7.4575 -7.125 6.4375 Z M-0.125 8.4375 C-0.125 9.4275 -0.125 10.4175 -0.125 11.4375 C0.865 11.7675 1.855 12.0975 2.875 12.4375 C2.875 11.7775 2.875 11.1175 2.875 10.4375 C2.215 10.4375 1.555 10.4375 0.875 10.4375 C0.545 9.7775 0.215 9.1175 -0.125 8.4375 Z M-14.125 11.4375 C-14.125 12.0975 -14.125 12.7575 -14.125 13.4375 C-12.805 13.1075 -11.485 12.7775 -10.125 12.4375 C-11.445 12.1075 -12.765 11.7775 -14.125 11.4375 Z M-3.125 12.4375 C-2.795 14.0875 -2.465 15.7375 -2.125 17.4375 C-1.795 17.4375 -1.465 17.4375 -1.125 17.4375 C-1.125 15.7875 -1.125 14.1375 -1.125 12.4375 C-1.785 12.4375 -2.445 12.4375 -3.125 12.4375 Z M-19.125 15.4375 C-18.125 17.4375 -18.125 17.4375 -18.125 17.4375 Z M-15.125 15.4375 C-14.465 16.0975 -13.805 16.7575 -13.125 17.4375 C-13.125 16.7775 -13.125 16.1175 -13.125 15.4375 C-13.785 15.4375 -14.445 15.4375 -15.125 15.4375 Z M-8.125 15.4375 C-8.455 16.4275 -8.785 17.4175 -9.125 18.4375 C-8.135 18.7675 -7.145 19.0975 -6.125 19.4375 C-6.455 18.1175 -6.785 16.7975 -7.125 15.4375 C-7.455 15.4375 -7.785 15.4375 -8.125 15.4375 Z M3.875 15.4375 C3.545 16.7575 3.215 18.0775 2.875 19.4375 C4.525 19.4375 6.175 19.4375 7.875 19.4375 C7.545 18.7775 7.215 18.1175 6.875 17.4375 C6.215 17.4375 5.555 17.4375 4.875 17.4375 C4.545 16.7775 4.215 16.1175 3.875 15.4375 Z M-1.125 17.4375 C-0.125 19.4375 -0.125 19.4375 -0.125 19.4375 Z M-22.125 18.4375 C-21.125 20.4375 -21.125 20.4375 -21.125 20.4375 Z M-6.125 19.4375 C-5.125 21.4375 -5.125 21.4375 -5.125 21.4375 Z M-19.125 26.4375 C-18.795 27.0975 -18.465 27.7575 -18.125 28.4375 C-17.795 27.7775 -17.465 27.1175 -17.125 26.4375 C-17.785 26.4375 -18.445 26.4375 -19.125 26.4375 Z M-20.125 29.4375 C-20.785 30.0975 -21.445 30.7575 -22.125 31.4375 C-21.135 31.4375 -20.145 31.4375 -19.125 31.4375 C-19.455 30.7775 -19.785 30.1175 -20.125 29.4375 Z " fill="#D3C5C5" transform="translate(267.125,223.5625)"/>
<path d="M0 0 C0 14.19 0 28.38 0 43 C-22.95990269 43 -22.95990269 43 -29.125 37.4375 C-29.80892822 36.8911792 -30.49285645 36.3448584 -31.19750977 35.78198242 C-32.54244918 34.70746252 -33.87387174 33.61573166 -35.18896484 32.50488281 C-37.66481878 30.44756768 -40.28164485 28.62866418 -42.9375 26.8125 C-43.68902344 26.28269531 -44.44054687 25.75289062 -45.21484375 25.20703125 C-46.98749166 23.95187191 -46.98749166 23.95187191 -49 23 C-49 22.01 -49 21.02 -49 20 C-47.0234375 18.31640625 -47.0234375 18.31640625 -44.375 16.5625 C-43.46492187 15.9540625 -42.55484375 15.345625 -41.6171875 14.71875 C-40.32167969 13.86796875 -40.32167969 13.86796875 -39 13 C-37.83329378 12.1875568 -36.66661806 11.37506979 -35.5 10.5625 C-33 9 -33 9 -31 9 C-31 8.34 -31 7.68 -31 7 C-28 5 -28 5 -25 5 C-25 4.34 -25 3.68 -25 3 C-20 0 -20 0 0 0 Z M-22.6953125 10.625 C-23.43007812 11.16640625 -24.16484375 11.7078125 -24.921875 12.265625 C-25.64890625 12.83796875 -26.3759375 13.4103125 -27.125 14 C-27.89070313 14.57234375 -28.65640625 15.1446875 -29.4453125 15.734375 C-31.31399466 17.13588662 -33.16342196 18.55683731 -35 20 C-32.930205 24.78916355 -29.61868819 26.84035123 -25.4375 29.75 C-24.75880859 30.25660156 -24.08011719 30.76320312 -23.38085938 31.28515625 C-22.69701172 31.76339844 -22.01316406 32.24164063 -21.30859375 32.734375 C-20.69814209 33.16975586 -20.08769043 33.60513672 -19.45874023 34.05371094 C-16.03919192 35.53877599 -16.03919192 35.53877599 -8 35 C-8 26.09 -8 17.18 -8 8 C-16.56137996 7.38397302 -16.56137996 7.38397302 -22.6953125 10.625 Z " fill="#F6F3F2" transform="translate(215,224)"/>
<path d="M0 0 C3.45831586 -0.02894547 6.91660072 -0.04678 10.375 -0.0625 C11.35984375 -0.07087891 12.3446875 -0.07925781 13.359375 -0.08789062 C14.77089844 -0.09272461 14.77089844 -0.09272461 16.2109375 -0.09765625 C17.51490479 -0.10551147 17.51490479 -0.10551147 18.84521484 -0.11352539 C21 0 21 0 23 1 C23 1.66 23 2.32 23 3 C23.70125 3.2475 24.4025 3.495 25.125 3.75 C28.39514548 5.17180238 31.141122 6.87246288 34 9 C34 9.66 34 10.32 34 11 C34.66 11.226875 35.32 11.45375 36 11.6875 C39.88658628 13.3878815 43.63679817 15.39623084 47 18 C47 18.66 47 19.32 47 20 C47.66 20 48.32 20 49 20 C47.64284316 23.18058399 46.30679127 24.80793825 43.47265625 26.76953125 C42.76890869 27.26291992 42.06516113 27.75630859 41.34008789 28.26464844 C40.21268188 29.03083496 40.21268188 29.03083496 39.0625 29.8125 C37.9012561 30.60382324 37.9012561 30.60382324 36.71655273 31.41113281 C35.17213079 32.46168112 33.62602133 33.50975345 32.078125 34.55517578 C30.35846511 35.75077579 28.7007442 37.03491253 27.0625 38.33984375 C19.05790858 44.45585188 10.64724362 43.90894801 1 43 C0 42 0 42 -0.11352539 38.03100586 C-0.1133662 36.25894393 -0.10766785 34.4868774 -0.09765625 32.71484375 C-0.0962413 31.78402481 -0.09482635 30.85320587 -0.09336853 29.8941803 C-0.08775172 26.90858809 -0.0751964 23.92306971 -0.0625 20.9375 C-0.05748716 18.91862087 -0.05292388 16.89974057 -0.04882812 14.88085938 C-0.03777683 9.92054428 -0.02050095 4.96028468 0 0 Z M8 8 C8 16.91 8 25.82 8 35 C17.67935088 35.42265652 17.67935088 35.42265652 24.3125 30.75 C25.27800781 29.96109375 26.24351562 29.1721875 27.23828125 28.359375 C28.14964844 27.58078125 29.06101562 26.8021875 30 26 C31.41345703 24.92492187 31.41345703 24.92492187 32.85546875 23.828125 C33.56316406 23.22484375 34.27085937 22.6215625 35 22 C35 21.34 35 20.68 35 20 C33.51363242 18.6393991 33.51363242 18.6393991 31.625 17.375 C30.99851562 16.92898437 30.37203125 16.48296875 29.7265625 16.0234375 C28.04777357 14.83003031 28.04777357 14.83003031 26 15 C26 14.34 26 13.68 26 13 C24.57183153 11.61895255 24.57183153 11.61895255 22.625 10.375 C21.99851562 9.92898437 21.37203125 9.48296875 20.7265625 9.0234375 C16.9250207 7.41430432 16.9250207 7.41430432 8 8 Z " fill="#F8F5F5" transform="translate(287,224)"/>
<path d="M0 0 C1.16163666 -0.01354271 1.16163666 -0.01354271 2.34674072 -0.02735901 C3.98405098 -0.04184438 5.62141891 -0.050744 7.25878906 -0.05444336 C9.74385259 -0.06630235 12.22640047 -0.11546679 14.7109375 -0.16601562 C29.51710093 -0.31722472 29.51710093 -0.31722472 36.015625 5.37109375 C38.390625 7.93359375 38.390625 7.93359375 40.015625 10.37109375 C40.44875 11.01046875 40.881875 11.64984375 41.328125 12.30859375 C42.60482486 16.13869332 41.25193952 19.6621502 40.015625 23.37109375 C38.035625 23.37109375 36.055625 23.37109375 34.015625 23.37109375 C33.94085938 22.77941406 33.86609375 22.18773437 33.7890625 21.578125 C33.59183594 20.39283203 33.59183594 20.39283203 33.390625 19.18359375 C33.27460938 18.40628906 33.15859375 17.62898438 33.0390625 16.828125 C31.58778896 13.34396067 29.17467857 11.30395643 26.015625 9.37109375 C22.52194423 8.62721004 22.52194423 8.62721004 18.7890625 8.7421875 C18.11896149 8.73977554 17.44886047 8.73736359 16.75845337 8.73487854 C15.3516036 8.73585226 13.94471323 8.74913234 12.53808594 8.77416992 C10.38865113 8.80862539 8.24330217 8.79477586 6.09375 8.77539062 C4.72133675 8.78228642 3.34893403 8.79195642 1.9765625 8.8046875 C0.73696777 8.81556396 -0.50262695 8.82644043 -1.77978516 8.83764648 C-5.53076994 9.46204857 -6.68133375 10.41403853 -8.984375 13.37109375 C-11.22106141 17.84446656 -10.2116016 23.94317405 -10.22460938 28.91918945 C-10.23429311 31.1646052 -10.26530457 33.40909687 -10.296875 35.65429688 C-10.30340752 37.08723416 -10.30865702 38.52017798 -10.3125 39.953125 C-10.3218457 41.25483643 -10.33119141 42.55654785 -10.34082031 43.89770508 C-9.96330571 47.5764039 -9.04258027 49.36428001 -6.984375 52.37109375 C-6.984375 53.03109375 -6.984375 53.69109375 -6.984375 54.37109375 C-6.18 54.61859375 -5.375625 54.86609375 -4.546875 55.12109375 C-1.984375 56.37109375 -1.984375 56.37109375 -1.171875 58.49609375 C-1.11 59.11484375 -1.048125 59.73359375 -0.984375 60.37109375 C-3.171875 61.99609375 -3.171875 61.99609375 -5.984375 63.37109375 C-10.0946647 62.65179305 -12.37453717 60.37831739 -14.85961914 57.09350586 C-19.72213986 49.6472103 -19.48044098 41.72210599 -19.43041992 33.1628418 C-19.4219057 30.941603 -19.45073911 28.72293926 -19.48242188 26.50195312 C-19.52422092 18.1509261 -19.3202757 10.39028287 -13.59936523 3.76782227 C-9.39719419 0.13356368 -5.39379364 0.0389979 0 0 Z " fill="#EEE6E5" transform="translate(193.984375,163.62890625)"/>
<path d="M0 0 C2.4716921 0.03444441 4.93982693 0.02059674 7.41162109 0.0012207 C8.99627159 0.0081171 10.58091297 0.01778763 12.16552734 0.03051758 C12.89691925 0.02555771 13.62831116 0.02059784 14.38186646 0.01548767 C19.49359499 0.13205249 22.40829174 1.37942178 26.34521484 4.59692383 C30.90625322 10.51394659 31.50409637 14.88009321 31.54833984 22.17895508 C31.55403992 22.9113591 31.55973999 23.64376312 31.56561279 24.39836121 C31.57503966 25.94573533 31.58158756 27.49312932 31.58544922 29.04052734 C31.59513918 31.39106852 31.62617664 33.7407288 31.65771484 36.09106445 C31.66424744 37.59952284 31.6694969 39.10798744 31.67333984 40.61645508 C31.68568665 41.31148636 31.69803345 42.00651764 31.71075439 42.72261047 C31.68124074 49.28469483 29.71959986 54.52795743 25.34521484 59.47192383 C24.85021484 60.0468457 24.35521484 60.62176758 23.84521484 61.21411133 C22.34521484 62.59692383 22.34521484 62.59692383 19.34521484 63.59692383 C16.15771484 61.78442383 16.15771484 61.78442383 13.34521484 59.59692383 C13.34521484 58.93692383 13.34521484 58.27692383 13.34521484 57.59692383 C15.00054107 56.57826154 16.66781623 55.5788157 18.34521484 54.59692383 C18.84021484 53.60692383 18.84021484 53.60692383 19.34521484 52.59692383 C20.00521484 52.59692383 20.66521484 52.59692383 21.34521484 52.59692383 C22.84612958 46.28974319 22.644142 39.84136334 22.6953125 33.39526367 C22.71191573 31.86288309 22.73926351 30.33058131 22.77734375 28.79858398 C22.83221296 26.57471099 22.85399048 24.35263301 22.86865234 22.12817383 C22.89132172 21.44783081 22.91399109 20.76748779 22.93734741 20.06652832 C22.92120186 16.41729209 22.3873694 14.65626268 20.25805664 11.65893555 C16.62787897 9.08911905 14.63460274 9.00326859 10.21630859 9.07348633 C9.54479263 9.07818939 8.87327667 9.08289246 8.18141174 9.08773804 C6.04744391 9.10898204 3.91601098 9.16551166 1.78271484 9.22192383 C0.34588948 9.23844465 -1.09096266 9.25278918 -2.52783203 9.26489258 C-10.21114104 9.09660683 -10.21114104 9.09660683 -17.65478516 10.59692383 C-19.47628578 13.3231433 -20.12402638 16.16180975 -20.77978516 19.34692383 C-20.94736328 20.14614258 -21.11494141 20.94536133 -21.28759766 21.76879883 C-21.40876953 22.37208008 -21.52994141 22.97536133 -21.65478516 23.59692383 C-23.63478516 23.59692383 -25.61478516 23.59692383 -27.65478516 23.59692383 C-29.57208093 20.77737122 -29.64810134 19.52072829 -29.34228516 16.03442383 C-28.65478516 12.59692383 -28.65478516 12.59692383 -27.65478516 9.59692383 C-26.99478516 9.59692383 -26.33478516 9.59692383 -25.65478516 9.59692383 C-25.25235596 8.69091431 -25.25235596 8.69091431 -24.84179688 7.76660156 C-19.88058239 -1.30174749 -8.9749932 -0.13875164 0 0 Z " fill="#ECE4E4" transform="translate(295.65478515625,163.403076171875)"/>
<path d="M0 0 C0 0.66 0 1.32 0 2 C1.32 2.66 2.64 3.32 4 4 C4 4.66 4 5.32 4 6 C2.68 6.33 1.36 6.66 0 7 C0 7.66 0 8.32 0 9 C-0.66 9 -1.32 9 -2 9 C-2 9.66 -2 10.32 -2 11 C-2.66 11 -3.32 11 -4 11 C-5.86320709 16.87126885 -5.30334966 23.44653617 -5.35009766 29.5534668 C-5.36668207 31.14118075 -5.39400531 32.72881929 -5.43212891 34.31616211 C-5.48699755 36.61611266 -5.50877902 38.91432634 -5.5234375 41.21484375 C-5.54610687 41.9201976 -5.56877625 42.62555145 -5.59213257 43.35227966 C-5.57629518 47.06105518 -5.07272779 48.89748593 -2.91064453 51.94506836 C0.68465135 54.48336776 2.71823114 54.64417378 7.09375 54.6640625 C7.76289429 54.66884613 8.43203857 54.67362976 9.12145996 54.67855835 C10.53005334 54.68194656 11.93872652 54.67281922 13.34716797 54.65185547 C15.49495886 54.62506289 17.63752653 54.65162766 19.78515625 54.68359375 C21.15886562 54.68028945 22.53257176 54.67388276 23.90625 54.6640625 C25.76733398 54.65560303 25.76733398 54.65560303 27.66601562 54.64697266 C31.86893831 53.83137914 33.33226489 52.27430285 36 49 C37.19358607 46.60768979 37.19358607 46.60768979 37.8125 44.1875 C38.04582031 43.39730469 38.27914062 42.60710937 38.51953125 41.79296875 C38.67808594 41.20128906 38.83664063 40.60960937 39 40 C40.98 40 42.96 40 45 40 C46.64874527 42.52161041 47.01134133 43.82609965 46.8125 46.875 C45.94376858 50.21627467 44.65465801 52.97845058 43 56 C42.34 56 41.68 56 41 56 C41 56.66 41 57.32 41 58 C33.14323795 63.27099226 25.67689326 63.75413937 16.53100586 63.59692383 C14.30520449 63.5623868 12.08333976 63.5763686 9.85742188 63.59570312 C8.42185834 63.58880816 6.98630487 63.57913892 5.55078125 63.56640625 C3.62745972 63.55009155 3.62745972 63.55009155 1.6652832 63.53344727 C-4.02620783 62.70510464 -7.74613642 60.58382768 -11.375 56 C-13.99483254 51.16338608 -14.18047471 46.92568215 -14.23828125 41.48828125 C-14.25038887 40.39679024 -14.25038887 40.39679024 -14.26274109 39.2832489 C-14.27654487 37.74427648 -14.28728353 36.20527391 -14.29516602 34.66625977 C-14.30665676 33.10594595 -14.3270626 31.54567054 -14.35668945 29.9855957 C-14.66842326 13.55078055 -14.66842326 13.55078055 -10 6 C-9.67 5.34 -9.34 4.68 -9 4 C-8.34 4 -7.68 4 -7 4 C-7 3.34 -7 2.68 -7 2 C-4 0 -4 0 0 0 Z " fill="#EEE6E5" transform="translate(189,264)"/>
<path d="M0 0 C4.8628852 0.41681873 6.86486307 2.36984145 10 6 C13.75244275 11.49464831 14.16343843 16.03492355 14.203125 22.58203125 C14.20882507 23.31443527 14.21452515 24.04683929 14.22039795 24.80143738 C14.22982481 26.3488115 14.23637272 27.89620549 14.24023438 29.44360352 C14.24992433 31.7941447 14.28096179 34.14380498 14.3125 36.49414062 C14.3190326 38.00259901 14.32428206 39.51106361 14.328125 41.01953125 C14.3404718 41.71456253 14.3528186 42.40959381 14.36553955 43.12568665 C14.33977545 48.85409133 13.1303748 53.61815556 9.24609375 57.9609375 C8.64925781 58.42757812 8.05242187 58.89421875 7.4375 59.375 C6.83808594 59.85710937 6.23867188 60.33921875 5.62109375 60.8359375 C2.05811351 63.39441488 -1.18425241 63.17792167 -5.421875 63.203125 C-6.15948059 63.20882507 -6.89708618 63.21452515 -7.65704346 63.22039795 C-9.22056646 63.22985133 -10.78410941 63.23638327 -12.34765625 63.24023438 C-14.72692268 63.24990619 -17.10531264 63.28091079 -19.484375 63.3125 C-21.00520322 63.3190337 -22.5260376 63.32428273 -24.046875 63.328125 C-24.75334167 63.3404718 -25.45980835 63.3528186 -26.18768311 63.36553955 C-33.07898676 63.33484561 -38.06057073 60.6794593 -43 56 C-45.22034423 52.9696279 -46.84795141 50.08968156 -47.375 46.3125 C-46.97829418 43.86614742 -46.25903183 42.12461621 -45 40 C-43.02 40 -41.04 40 -39 40 C-38.08941469 43.07322544 -37.91113816 45.80097361 -38 49 C-37.34 49 -36.68 49 -36 49 C-35.28078369 49.8142041 -34.56156738 50.6284082 -33.82055664 51.46728516 C-30.26259251 54.66215401 -28.58631048 54.59837408 -23.87109375 54.5234375 C-23.19957779 54.51873444 -22.52806183 54.51403137 -21.8361969 54.50918579 C-19.70222907 54.48794179 -17.57079614 54.43141217 -15.4375 54.375 C-14.00067463 54.35847918 -12.56382249 54.34413465 -11.12695312 54.33203125 C-3.47339252 54.39337249 -3.47339252 54.39337249 4 53 C5.19152234 49.24037691 5.17880766 45.50599375 5.203125 41.6015625 C5.21167511 40.53269302 5.21167511 40.53269302 5.22039795 39.44223022 C5.22982224 37.93773878 5.23637169 36.43322694 5.24023438 34.92871094 C5.24993809 32.63960402 5.28098335 30.35139641 5.3125 28.0625 C5.31903123 26.59635946 5.32428123 25.13021255 5.328125 23.6640625 C5.3404718 22.98574371 5.3528186 22.30742493 5.36553955 21.60855103 C5.34097835 16.31083184 4.09688615 12.19382249 0.39453125 8.3203125 C-0.38857422 7.72863281 -0.38857422 7.72863281 -1.1875 7.125 C-2.115625 6.42375 -3.04375 5.7225 -4 5 C-2.68 3.35 -1.36 1.7 0 0 Z " fill="#EDE7E6" transform="translate(313,264)"/>
<path d="M0 0 C2.64 0 5.28 0 8 0 C8.34256836 0.66008057 8.68513672 1.32016113 9.03808594 2.00024414 C10.60725208 5.02176309 12.17860787 8.04213816 13.75 11.0625 C14.28882813 12.10083984 14.82765625 13.13917969 15.3828125 14.20898438 C18.15601072 19.53555412 20.96988419 24.81497173 24 30 C25.91904891 26.50130124 27.83480021 23.00080705 29.75 19.5 C30.28882813 18.51773437 30.82765625 17.53546875 31.3828125 16.5234375 C34.36655611 11.06536992 37.26073504 5.58490915 40 0 C42.64 0 45.28 0 48 0 C48.38032772 4.39753924 47.33851248 6.62203499 45 10.3125 C42.06239189 15.13136421 39.42364731 19.99666005 36.9375 25.0625 C29.33005234 40.50492148 29.33005234 40.50492148 25 47 C21.54696825 45.84898942 21.43200723 45.49293194 19.87109375 42.4140625 C19.28521484 41.27807617 19.28521484 41.27807617 18.6875 40.11914062 C18.275 39.29607422 17.8625 38.47300781 17.4375 37.625 C16.55100629 35.89832195 15.66428048 34.17176304 14.77734375 32.4453125 C14.09454346 31.10388184 14.09454346 31.10388184 13.39794922 29.73535156 C11.13378318 25.30508325 8.81676453 20.90292024 6.5 16.5 C6.07904053 15.69385254 5.65808105 14.88770508 5.22436523 14.05712891 C4.83063721 13.30608887 4.43690918 12.55504883 4.03125 11.78125 C3.68642578 11.12189453 3.34160156 10.46253906 2.98632812 9.78320312 C2.07655834 8.13841141 1.04263289 6.56394934 0 5 C-0.125 2.3125 -0.125 2.3125 0 0 Z " fill="#E7E1E1" transform="translate(227,285)"/>
<path d="M0 0 C3.68388238 1.22796079 3.88756546 2.0816478 5.671875 5.41796875 C6.16824463 6.33650635 6.66461426 7.25504395 7.17602539 8.20141602 C7.69543701 9.18682373 8.21484863 10.17223145 8.75 11.1875 C9.28423584 12.18386475 9.81847168 13.18022949 10.36889648 14.20678711 C13.89831162 20.82022989 17.32217508 27.47999908 20.59765625 34.22265625 C21.95377272 37.02717486 21.95377272 37.02717486 23.68359375 39.62109375 C25 42 25 42 25 46 C22.36 46 19.72 46 17 46 C13.48065911 39.90949016 10.11090406 33.74157839 6.75 27.5625 C6.19570313 26.54478516 5.64140625 25.52707031 5.0703125 24.47851562 C3.71290003 21.98602548 2.35614654 19.49317909 1 17 C-1.1066405 20.70693315 -3.20986997 24.41579081 -5.3125 28.125 C-5.90740234 29.17171875 -6.50230469 30.2184375 -7.11523438 31.296875 C-7.69208984 32.31523437 -8.26894531 33.33359375 -8.86328125 34.3828125 C-9.39219971 35.31496582 -9.92111816 36.24711914 -10.46606445 37.20751953 C-12.05629496 40.10248316 -13.54136833 43.03685571 -15 46 C-17.64 46 -20.28 46 -23 46 C-22.45614222 41.7617802 -21.49444505 38.53517918 -19.48828125 34.76953125 C-18.97716797 33.80080078 -18.46605469 32.83207031 -17.93945312 31.83398438 C-17.40255859 30.83689453 -16.86566406 29.83980469 -16.3125 28.8125 C-15.79494141 27.83474609 -15.27738281 26.85699219 -14.74414062 25.84960938 C-13.17497074 22.89300409 -11.59055239 19.94515175 -10 17 C-9.45569336 15.9901001 -8.91138672 14.9802002 -8.35058594 13.93969727 C-5.74823572 9.1356951 -3.1427711 4.47240503 0 0 Z " fill="#E9E1E0" transform="translate(250,159)"/>
<path d="M0 0 C1.21429688 -0.01417969 2.42859375 -0.02835937 3.6796875 -0.04296875 C8.25018213 0.26276729 10.89234013 0.97358781 14.1796875 4.2109375 C14.78039062 4.98695313 15.38109375 5.76296875 16 6.5625 C16.92425781 7.71878906 16.92425781 7.71878906 17.8671875 8.8984375 C19.125 11.1875 19.125 11.1875 18.8203125 13.4765625 C18.59085937 14.04117187 18.36140625 14.60578125 18.125 15.1875 C17.135 15.1875 16.145 15.1875 15.125 15.1875 C15.125 18.4875 15.125 21.7875 15.125 25.1875 C15.785 25.1875 16.445 25.1875 17.125 25.1875 C17.125 26.8375 17.125 28.4875 17.125 30.1875 C12.175 30.1875 7.225 30.1875 2.125 30.1875 C2.125 27.2175 2.125 24.2475 2.125 21.1875 C1.465 21.1875 0.805 21.1875 0.125 21.1875 C0.125 24.1575 0.125 27.1275 0.125 30.1875 C-5.155 30.1875 -10.435 30.1875 -15.875 30.1875 C-15.875 28.5375 -15.875 26.8875 -15.875 25.1875 C-14.885 25.1875 -13.895 25.1875 -12.875 25.1875 C-12.875 21.8875 -12.875 18.5875 -12.875 15.1875 C-14.195 14.8575 -15.515 14.5275 -16.875 14.1875 C-16.54403688 8.89209011 -13.40270257 4.94336243 -9.875 1.1875 C-6.41768736 0.03506245 -3.64240787 0.01925163 0 0 Z M-7.8125 6.59375 C-9.05990007 8.14560858 -9.05990007 8.14560858 -8.875 10.1875 C-2.275 10.1875 4.325 10.1875 11.125 10.1875 C10.135 8.5375 9.145 6.8875 8.125 5.1875 C4.81044396 4.46762981 4.81044396 4.46762981 1.125 4.6875 C-0.1125 4.6978125 -1.35 4.708125 -2.625 4.71875 C-5.82701369 4.92299492 -5.82701369 4.92299492 -7.8125 6.59375 Z M-7.875 15.1875 C-7.875 18.4875 -7.875 21.7875 -7.875 25.1875 C-6.885 25.1875 -5.895 25.1875 -4.875 25.1875 C-4.875 22.5475 -4.875 19.9075 -4.875 17.1875 C1.065 16.6925 1.065 16.6925 7.125 16.1875 C7.125 19.1575 7.125 22.1275 7.125 25.1875 C8.115 25.1875 9.105 25.1875 10.125 25.1875 C10.125 21.8875 10.125 18.5875 10.125 15.1875 C4.185 15.1875 -1.755 15.1875 -7.875 15.1875 Z " fill="#FDFBFB" transform="translate(294.875,283.8125)"/>
<path d="M0 0 C3.5 0.125 3.5 0.125 4.5 1.125 C5.78940725 8.41861674 6.60163589 16.52193528 2.2734375 22.9453125 C-1.59885268 27.23175136 -5.80747574 28.83001886 -11.64233398 29.29614258 C-13.89028513 29.35608465 -16.12663391 29.34932669 -18.375 29.3125 C-19.14585937 29.31185547 -19.91671875 29.31121094 -20.7109375 29.31054688 C-26.3592017 29.2657983 -26.3592017 29.2657983 -27.5 28.125 C-27.54092937 25.79202567 -27.54241723 23.45794775 -27.5 21.125 C-25.52 20.465 -23.54 19.805 -21.5 19.125 C-22.16 18.465 -22.82 17.805 -23.5 17.125 C-22.5 16.125 -21.5 15.125 -20.5 14.125 C-20.025625 13.58875 -19.55125 13.0525 -19.0625 12.5 C-17.24635785 10.90179491 -15.85804482 10.53155945 -13.5 10.125 C-13.83 8.145 -14.16 6.165 -14.5 4.125 C-13.84 4.125 -13.18 4.125 -12.5 4.125 C-12.5 3.465 -12.5 2.805 -12.5 2.125 C-8.75 1 -8.75 1 -6.5 2.125 C-4.32424625 6.13296743 -4.45304747 8.74683487 -5.5 13.125 C-5.83 14.115 -6.16 15.105 -6.5 16.125 C-7.16 16.125 -7.82 16.125 -8.5 16.125 C-8.5 16.785 -8.5 17.445 -8.5 18.125 C-9.16 18.455 -9.82 18.785 -10.5 19.125 C-8.05519921 18.93671228 -8.05519921 18.93671228 -5.5 18.125 C-3.63122397 15.26165503 -3.24882297 13.00567125 -3.3125 9.625 C-3.31894531 8.8721875 -3.32539063 8.119375 -3.33203125 7.34375 C-3.43591891 5.10313605 -3.43591891 5.10313605 -4.07421875 2.90625 C-4.21472656 2.3184375 -4.35523438 1.730625 -4.5 1.125 C-3.5 0.125 -3.5 0.125 0 0 Z " fill="#E6DEDE" transform="translate(217.5,284.875)"/>
<path d="M0 0 C1.70637313 0 3.4125481 -0.06372397 5.1171875 -0.140625 C6.35726562 -0.17671875 7.59734375 -0.2128125 8.875 -0.25 C10.72738281 -0.31960937 10.72738281 -0.31960937 12.6171875 -0.390625 C16 0 16 0 18.4140625 1.703125 C21.09799681 5.59020227 20.76303626 9.45955649 20 14 C17.80873184 17.09799981 16.58943664 17.80352112 13 19 C11.60560336 19.06665376 10.20830125 19.08538199 8.8125 19.0625 C6.9253125 19.0315625 6.9253125 19.0315625 5 19 C5 18.34 5 17.68 5 17 C4.34 17.33 3.68 17.66 3 18 C-2.20984096 19.73661365 -6.34747177 19.64264987 -11.375 17.6875 C-14 16 -14 16 -16 13 C-16.53628973 8.25000522 -16.66827007 6.10610218 -14.1875 2 C-9.52419129 -0.92599762 -5.35693256 -0.38818352 0 0 Z M-9.8125 6.5 C-10.204375 6.995 -10.59625 7.49 -11 8 C-10.34 9.65 -9.68 11.3 -9 13 C-5.7 13 -2.4 13 1 13 C-0.32 12.67 -1.64 12.34 -3 12 C-3 9.69 -3 7.38 -3 5 C-6.71736641 4.65099442 -6.71736641 4.65099442 -9.8125 6.5 Z M4 5 C5.32 5.33 6.64 5.66 8 6 C7.67 8.31 7.34 10.62 7 13 C9.31 13 11.62 13 14 13 C14.66 11.68 15.32 10.36 16 9 C15.12355567 6.82271927 15.12355567 6.82271927 13 5 C9.97465051 4.63524155 7.03336186 4.77106703 4 5 Z M2 7 C3 11 3 11 3 11 Z " fill="#DED0D0" transform="translate(204,186)"/>
<path d="M0 0 C3.45831586 -0.02894547 6.91660072 -0.04678 10.375 -0.0625 C11.35984375 -0.07087891 12.3446875 -0.07925781 13.359375 -0.08789062 C14.77089844 -0.09272461 14.77089844 -0.09272461 16.2109375 -0.09765625 C17.51490479 -0.10551147 17.51490479 -0.10551147 18.84521484 -0.11352539 C21 0 21 0 23 1 C23 1.66 23 2.32 23 3 C23.70125 3.2475 24.4025 3.495 25.125 3.75 C28.39514548 5.17180238 31.141122 6.87246288 34 9 C34 9.66 34 10.32 34 11 C34.66 11.226875 35.32 11.45375 36 11.6875 C39.88658628 13.3878815 43.63679817 15.39623084 47 18 C47 18.66 47 19.32 47 20 C47.66 20 48.32 20 49 20 C47.60339756 23.33398442 46.11721895 24.93735862 43.15625 26.98046875 C42.40472656 27.50447266 41.65320313 28.02847656 40.87890625 28.56835938 C40.09386719 29.10267578 39.30882812 29.63699219 38.5 30.1875 C37.71496094 30.73341797 36.92992187 31.27933594 36.12109375 31.84179688 C30.40740095 35.79629953 30.40740095 35.79629953 28 37 C28.375 35.0625 28.375 35.0625 29 33 C29.99 32.505 29.99 32.505 31 32 C31 31.34 31 30.68 31 30 C29.35 29.67 27.7 29.34 26 29 C29 26 32 23 35 20 C34.443125 19.731875 33.88625 19.46375 33.3125 19.1875 C30.78774666 17.89100504 28.36285516 16.57523677 26 15 C26 14.34 26 13.68 26 13 C25.236875 12.71125 24.47375 12.4225 23.6875 12.125 C21 11 21 11 18 9 C15.25481679 8.75812349 15.25481679 8.75812349 12.3125 8.875 C11.31863281 8.89304688 10.32476562 8.91109375 9.30078125 8.9296875 C8.54152344 8.95289063 7.78226562 8.97609375 7 9 C7 8.34 7 7.68 7 7 C11.62 6.67 16.24 6.34 21 6 C20.67 4.35 20.34 2.7 20 1 C13.73 1 7.46 1 1 1 C1.33 13.87 1.66 26.74 2 40 C8.27 40.33 14.54 40.66 21 41 C17.11743359 43.58837761 13.86776783 43.25793118 9.375 43.1875 C8.19164062 43.1865332 8.19164062 43.1865332 6.984375 43.18554688 C1.1403612 43.1403612 1.1403612 43.1403612 0 42 C-0.08874135 38.89748799 -0.11518455 35.8173188 -0.09765625 32.71484375 C-0.0962413 31.78402481 -0.09482635 30.85320587 -0.09336853 29.8941803 C-0.08775172 26.90858809 -0.0751964 23.92306971 -0.0625 20.9375 C-0.05748716 18.91862087 -0.05292388 16.89974057 -0.04882812 14.88085938 C-0.03777683 9.92054428 -0.02050095 4.96028468 0 0 Z " fill="#ECE3E3" transform="translate(287,224)"/>
<path d="M0 0 C0 14.19 0 28.38 0 43 C-6.6 43 -13.2 43 -20 43 C-20.33 42.34 -20.66 41.68 -21 41 C-14.4 41.33 -7.8 41.66 -1 42 C-1 28.47 -1 14.94 -1 1 C-9.415 1.495 -9.415 1.495 -18 2 C-18.1490712 4.0745356 -18.1490712 4.0745356 -17 6 C-13.7 6.33 -10.4 6.66 -7 7 C-7 16.24 -7 25.48 -7 35 C-7.33 35 -7.66 35 -8 35 C-8 26.09 -8 17.18 -8 8 C-16.2895756 8.3169174 -16.2895756 8.3169174 -22.4765625 11.50390625 C-23.51103516 12.24350586 -23.51103516 12.24350586 -24.56640625 12.99804688 C-25.24574219 13.51431641 -25.92507812 14.03058594 -26.625 14.5625 C-27.70201172 15.34270508 -27.70201172 15.34270508 -28.80078125 16.13867188 C-30.54714185 17.40769391 -32.2755725 18.70133065 -34 20 C-33.67 21.32 -33.34 22.64 -33 24 C-33.99 24 -34.98 24 -36 24 C-36.99 26.475 -36.99 26.475 -38 29 C-41.63 27.02 -45.26 25.04 -49 23 C-49 22.01 -49 21.02 -49 20 C-47.0234375 18.31640625 -47.0234375 18.31640625 -44.375 16.5625 C-43.46492187 15.9540625 -42.55484375 15.345625 -41.6171875 14.71875 C-40.32167969 13.86796875 -40.32167969 13.86796875 -39 13 C-37.83329378 12.1875568 -36.66661806 11.37506979 -35.5 10.5625 C-33 9 -33 9 -31 9 C-31 8.34 -31 7.68 -31 7 C-28 5 -28 5 -25 5 C-25 4.34 -25 3.68 -25 3 C-20 0 -20 0 0 0 Z " fill="#D3C3C4" transform="translate(215,224)"/>
<path d="M0 0 C1.60488281 0.02707031 1.60488281 0.02707031 3.2421875 0.0546875 C5.87072178 0.10162561 8.49738913 0.16727067 11.125 0.25 C11.125 2.56 11.125 4.87 11.125 7.25 C9.81144531 7.26417969 8.49789063 7.27835938 7.14453125 7.29296875 C5.40881949 7.33987988 3.67314348 7.38812721 1.9375 7.4375 C1.07318359 7.44330078 0.20886719 7.44910156 -0.68164062 7.45507812 C-5.00410744 7.6041287 -7.31569148 7.87147807 -10.96875 10.34375 C-13.37854174 14.01769479 -13.39103512 16.20684842 -13.1875 20.5625 C-13.14238281 21.81675781 -13.09726562 23.07101563 -13.05078125 24.36328125 C-12.96376953 25.79220703 -12.96376953 25.79220703 -12.875 27.25 C-19.02734375 27.34765625 -19.02734375 27.34765625 -20.875 27.25 C-23.16187253 24.96312747 -22.18536244 20.13452403 -22.19189453 17.04956055 C-22.08399186 11.46859441 -21.45817197 8.49322997 -17.875 4.25 C-12.35964421 -0.70128531 -7.16199557 -0.22932498 0 0 Z " fill="#F8F2F3" transform="translate(300.875,177.75)"/>
<path d="M0 0 C3.25 -0.375 3.25 -0.375 7 0 C11 4.71794872 11 4.71794872 11 8 C11.66 8 12.32 8 13 8 C13.28875 7.05125 13.5775 6.1025 13.875 5.125 C15 2 15 2 17 0 C20.625 -0.125 20.625 -0.125 24 0 C24.33 0.66 24.66 1.32 25 2 C23.8467152 4.63139658 22.63610581 7.14351588 21.3125 9.6875 C20.95994141 10.38294922 20.60738281 11.07839844 20.24414062 11.79492188 C17.95648675 16.27403943 15.52518757 20.65074917 13 25 C12.34 25 11.68 25 11 25 C1.19047619 8.04761905 1.19047619 8.04761905 -1 3 C-0.67 2.01 -0.34 1.02 0 0 Z " fill="#EAE5E5" transform="translate(239,285)"/>
<path d="M0 0 C0.66 0 1.32 0 2 0 C4.03378113 3.61788201 6.0497833 7.24536341 8.0625 10.875 C8.64322266 11.90753906 9.22394531 12.94007813 9.82226562 14.00390625 C10.36689453 14.99003906 10.91152344 15.97617188 11.47265625 16.9921875 C11.98062744 17.90339355 12.48859863 18.81459961 13.01196289 19.75341797 C13.33801514 20.49479004 13.66406738 21.23616211 14 22 C13.67 22.66 13.34 23.32 13 24 C10.36 24 7.72 24 5 24 C3.68 21.69 2.36 19.38 1 17 C-0.32 19.31 -1.64 21.62 -3 24 C-5.97 24 -8.94 24 -12 24 C-10.42195846 18.39523177 -7.73583615 13.64949374 -4.875 8.625 C-4.17310547 7.37783203 -4.17310547 7.37783203 -3.45703125 6.10546875 C-2.30929451 4.06765046 -1.15686718 2.03264431 0 0 Z " fill="#E3DBDB" transform="translate(250,181)"/>
<path d="M0 0 C0 6.93 0 13.86 0 21 C-8 21 -8 21 -11 19.125 C-13 17 -13 17 -13 15 C-14.175625 14.62875 -14.175625 14.62875 -15.375 14.25 C-18.3916501 12.81349995 -18.71565565 11.95279169 -20 9 C-18.18368117 7.47429218 -16.35144223 5.9820439 -14.5 4.5 C-13.4790625 3.6646875 -12.458125 2.829375 -11.40625 1.96875 C-8 0 -8 0 0 0 Z M-10 9 C-9.67 9.99 -9.34 10.98 -9 12 C-8.01 11.67 -7.02 11.34 -6 11 C-6 10.34 -6 9.68 -6 9 C-7.32 9 -8.64 9 -10 9 Z " fill="#D1C2C3" transform="translate(205,235)"/>
<path d="M0 0 C2.31 0 4.62 0 7 0 C6.01 0.33 5.02 0.66 4 1 C4.83333333 3.16666667 4.83333333 3.16666667 7 4 C7.99 4.66 8.98 5.32 10 6 C11.65583225 6.69313908 13.32110979 7.36474424 15 8 C14.67 9.65 14.34 11.3 14 13 C12.35 13 10.7 13 9 13 C8.67 12.34 8.34 11.68 8 11 C7.59007812 11.5053125 7.18015625 12.010625 6.7578125 12.53125 C6.21898437 13.1809375 5.68015625 13.830625 5.125 14.5 C4.59132813 15.1496875 4.05765625 15.799375 3.5078125 16.46875 C3.01023437 16.9740625 2.51265625 17.479375 2 18 C1.34 18 0.68 18 0 18 C0 18.66 0 19.32 0 20 C-5.75 23 -5.75 23 -8 23 C-8.33 22.01 -8.66 21.02 -9 20 C-10.65 20 -12.3 20 -14 20 C-14 19.34 -14 18.68 -14 18 C-14.33 18 -14.66 18 -15 18 C-15 16.35 -15 14.7 -15 13 C-14.34 13 -13.68 13 -13 13 C-13 12.01 -13 11.02 -13 10 C-13.99 9.67 -14.98 9.34 -16 9 C-15.34 8.67 -14.68 8.34 -14 8 C-13.21625 8.639375 -12.4325 9.27875 -11.625 9.9375 C-9.20460719 11.98142313 -9.20460719 11.98142313 -7 13 C-6.71125 12.195625 -6.4225 11.39125 -6.125 10.5625 C-5 8 -5 8 -3 7 C-2.34444881 4.47266765 -2.34444881 4.47266765 -2 2 C-1.34 2 -0.68 2 0 2 C0 1.34 0 0.68 0 0 Z M2 7 C3 9 3 9 3 9 Z M0 9 C0.33 9.99 0.66 10.98 1 12 C1.33 11.01 1.66 10.02 2 9 C1.34 9 0.68 9 0 9 Z M-5 15 C-5.33 15.66 -5.66 16.32 -6 17 C-5.01 16.67 -4.02 16.34 -3 16 C-3.66 15.67 -4.32 15.34 -5 15 Z " fill="#D0C3C2" transform="translate(267,247)"/>
<path d="M0 0 C0 2.62113708 -0.31292445 4.50935112 -1 7 C-0.01 7 0.98 7 2 7 C2.33 8.65 2.66 10.3 3 12 C3.33 12 3.66 12 4 12 C4.33 10.35 4.66 8.7 5 7 C11.27 7 17.54 7 24 7 C24 7.33 24 7.66 24 8 C18.06 8 12.12 8 6 8 C6 11.3 6 14.6 6 18 C6.99 18 7.98 18 9 18 C8.814375 16.700625 8.62875 15.40125 8.4375 14.0625 C8.12109375 11.84765625 8.12109375 11.84765625 8 10 C9 9 9 9 11.72265625 8.90234375 C13.37587891 8.91974609 13.37587891 8.91974609 15.0625 8.9375 C16.16722656 8.94652344 17.27195312 8.95554687 18.41015625 8.96484375 C19.26480469 8.97644531 20.11945313 8.98804688 21 9 C20.69230293 10.81332154 20.37870936 12.62564345 20.0625 14.4375 C19.80146484 15.95150391 19.80146484 15.95150391 19.53515625 17.49609375 C19 20 19 20 18 21 C22.29 21.33 26.58 21.66 31 22 C31 22.33 31 22.66 31 23 C26.05 23 21.1 23 16 23 C16 20.03 16 17.06 16 14 C15.34 14 14.68 14 14 14 C14 16.97 14 19.94 14 23 C8.72 23 3.44 23 -2 23 C-2 21.35 -2 19.7 -2 18 C-1.01 18 -0.02 18 1 18 C1 14.7 1 11.4 1 8 C-0.32 7.67 -1.64 7.34 -3 7 C-2.25 2.25 -2.25 2.25 0 0 Z " fill="#D2C3C2" transform="translate(281,291)"/>
<path d="M0 0 C4.95769796 -0.29162929 8.02806853 -0.12940055 12 3 C12 3.66 12 4.32 12 5 C12.78375 5.28875 13.5675 5.5775 14.375 5.875 C17 7 17 7 19 9 C19 10.875 19 10.875 18 13 C12.77777778 17 12.77777778 17 10 17 C10 17.66 10 18.32 10 19 C6.3558226 21.4294516 4.28758728 21.16179575 0 21 C-0.19645093 17.87549468 -0.38063489 14.75038555 -0.5625 11.625 C-0.61857422 10.73554688 -0.67464844 9.84609375 -0.73242188 8.9296875 C-0.78076172 8.07890625 -0.82910156 7.228125 -0.87890625 6.3515625 C-0.9260376 5.56604004 -0.97316895 4.78051758 -1.02172852 3.97119141 C-1 2 -1 2 0 0 Z M7 8 C6.01 9.485 6.01 9.485 5 11 C6.32 11.33 7.64 11.66 9 12 C8.67 10.68 8.34 9.36 8 8 C7.67 8 7.34 8 7 8 Z " fill="#E2D7D7" transform="translate(298,235)"/>
<path d="M0 0 C0 0.99 0 1.98 0 3 C1.98 2.67 3.96 2.34 6 2 C6 4.31 6 6.62 6 9 C3.35261084 10.4606285 2.10551666 11 -1 11 C-1.99 12.485 -1.99 12.485 -3 14 C-3.33 13.34 -3.66 12.68 -4 12 C-3.67 11.34 -3.34 10.68 -3 10 C-5.91517292 11.07401108 -7.77810176 11.77810176 -10 14 C-9.01 14.33 -8.02 14.66 -7 15 C-6.20046862 18.28696233 -5.90341064 19.71023192 -7 23 C-10.96 23 -14.92 23 -19 23 C-19 22.67 -19 22.34 -19 22 C-16.69 22 -14.38 22 -12 22 C-12.33 21.01 -12.66 20.02 -13 19 C-14.98 19.99 -14.98 19.99 -17 21 C-16 18 -16 18 -15 17 C-17.31 16.67 -19.62 16.34 -22 16 C-22.38218767 14.34385343 -22.71395102 12.67542976 -23 11 C-22 10 -22 10 -19.4375 9.9375 C-18.633125 9.958125 -17.82875 9.97875 -17 10 C-16.67 10.66 -16.34 11.32 -16 12 C-15.34 10.68 -14.68 9.36 -14 8 C-13.34 8 -12.68 8 -12 8 C-12 7.34 -12 6.68 -12 6 C-11.34 6 -10.68 6 -10 6 C-10 5.34 -10 4.68 -10 4 C-3.375 0 -3.375 0 0 0 Z M-4 6 C-4.66 6.66 -5.32 7.32 -6 8 C-5.01 8 -4.02 8 -3 8 C-3.33 7.34 -3.66 6.68 -4 6 Z " fill="#D8CDCC" transform="translate(243,221)"/>
<path d="M0 0 C-0.33 1.32 -0.66 2.64 -1 4 C-0.34 4 0.32 4 1 4 C1 3.34 1 2.68 1 2 C2.98 1.34 4.96 0.68 7 0 C6.8125 2.375 6.8125 2.375 6 5 C3.4375 6.3125 3.4375 6.3125 1 7 C0.71583398 14.71352063 0.71583398 14.71352063 3 22 C3 23.32 3 24.64 3 26 C1.68 25.34 0.36 24.68 -1 24 C-1 23.34 -1 22.68 -1 22 C-1.66 22 -2.32 22 -3 22 C-3.33 20.02 -3.66 18.04 -4 16 C-7.96 16.495 -7.96 16.495 -12 17 C-12 18.98 -12 20.96 -12 23 C-16.84146109 21.53289058 -20.55948972 18.6487256 -24 15 C-24 14.34 -24 13.68 -24 13 C-23.34 13 -22.68 13 -22 13 C-22 12.34 -22 11.68 -22 11 C-19.38626111 8.46093936 -17.87110419 7.07743148 -14.1875 6.75 C-13.465625 6.8325 -12.74375 6.915 -12 7 C-12.66 8.65 -13.32 10.3 -14 12 C-14.66 12 -15.32 12 -16 12 C-14.94021067 13.28612676 -14.94021067 13.28612676 -12.49609375 13.09765625 C-11.48675781 13.08605469 -10.47742188 13.07445312 -9.4375 13.0625 C-8.42558594 13.05347656 -7.41367188 13.04445312 -6.37109375 13.03515625 C-5.58863281 13.02355469 -4.80617187 13.01195312 -4 13 C-2.98312954 8.22237362 -2.98312954 8.22237362 -3.9375 3.5625 C-4.288125 3.046875 -4.63875 2.53125 -5 2 C-2 0 -2 0 0 0 Z " fill="#FCFAF8" transform="translate(240,231)"/>
<path d="M0 0 C-2.30298656 1.15149328 -3.58996098 1.12336988 -6.15078735 1.12025452 C-7.02019455 1.12162918 -7.88960175 1.12300385 -8.78535461 1.12442017 C-10.21925789 1.11902725 -10.21925789 1.11902725 -11.68212891 1.11352539 C-13.18949364 1.11374443 -13.18949364 1.11374443 -14.72731018 1.1139679 C-18.06041598 1.11326929 -21.39346642 1.10547933 -24.7265625 1.09765625 C-27.03298919 1.09579188 -29.33941628 1.09436807 -31.64584351 1.09336853 C-37.72531217 1.08954482 -43.80475706 1.07971576 -49.88421631 1.06866455 C-56.08426593 1.0584473 -62.28431939 1.05387024 -68.484375 1.04882812 C-80.65626046 1.03809338 -92.82812826 1.02101869 -105 1 C-105 2.98 -105 4.96 -105 7 C-103.71367676 6.9685791 -103.71367676 6.9685791 -102.40136719 6.93652344 C-99.21081528 6.86823473 -96.02063654 6.81814487 -92.82958984 6.78027344 C-91.4502332 6.76019358 -90.07096131 6.73292334 -88.69189453 6.69824219 C-86.70643021 6.64957183 -84.72033746 6.62913582 -82.734375 6.609375 C-81.54038086 6.58842773 -80.34638672 6.56748047 -79.11621094 6.54589844 C-76 7 -76 7 -73.56347656 8.79003906 C-72 11 -72 11 -72.25 14.75 C-72.4975 15.8225 -72.745 16.895 -73 18 C-74.32 18 -75.64 18 -77 18 C-77.33 17.34 -77.66 16.68 -78 16 C-78.33 17.32 -78.66 18.64 -79 20 C-80.65 19.34 -82.3 18.68 -84 18 C-84 16.35 -84 14.7 -84 13 C-83.01 13 -82.02 13 -81 13 C-81 11.68 -81 10.36 -81 9 C-89.25 8.67 -97.5 8.34 -106 8 C-106 5.36 -106 2.72 -106 0 C-92.62234239 -0.15369501 -79.24463628 -0.30187678 -65.86683941 -0.4429636 C-59.6554142 -0.50864588 -53.44402209 -0.57624794 -47.23266602 -0.64819336 C-41.24161229 -0.71751714 -35.25052411 -0.7818556 -29.25937843 -0.84269524 C-26.97035582 -0.86682449 -24.68135162 -0.89276908 -22.39237022 -0.92053413 C-19.19349422 -0.95903007 -15.99461438 -0.99114897 -12.7956543 -1.02172852 C-11.84331406 -1.03467453 -10.89097382 -1.04762054 -9.90977478 -1.06095886 C-9.03899292 -1.06799835 -8.16821106 -1.07503784 -7.27104187 -1.08229065 C-6.51424983 -1.09058679 -5.75745779 -1.09888292 -4.97773266 -1.10743046 C-3 -1 -3 -1 0 0 Z " fill="#C7B3B4" transform="translate(301,208)"/>
<path d="M0 0 C2 0.875 2 0.875 3.3125 3.0625 C4.36841594 7.3821561 3.38195665 10.72913004 2 14.875 C1.34 14.875 0.68 14.875 0 14.875 C0 15.535 0 16.195 0 16.875 C-0.66 17.205 -1.32 17.535 -2 17.875 C-1.34 18.535 -0.68 19.195 0 19.875 C-5.94 19.875 -11.88 19.875 -18 19.875 C-18 19.545 -18 19.215 -18 18.875 C-16.35 18.545 -14.7 18.215 -13 17.875 C-13.66 17.215 -14.32 16.555 -15 15.875 C-14 14.875 -13 13.875 -12 12.875 C-11.525625 12.33875 -11.05125 11.8025 -10.5625 11.25 C-8.74635785 9.65179491 -7.35804482 9.28155945 -5 8.875 C-5.33 6.895 -5.66 4.915 -6 2.875 C-5.34 2.875 -4.68 2.875 -4 2.875 C-4 2.215 -4 1.555 -4 0.875 C-2 -0.125 -2 -0.125 0 0 Z " fill="#D9D0D1" transform="translate(209,286.125)"/>
<path d="M0 0 C0.99 0.33 1.98 0.66 3 1 C4.125 6.75 4.125 6.75 3 9 C2.34 9 1.68 9 1 9 C1 9.66 1 10.32 1 11 C16.84 10.67 32.68 10.34 49 10 C48.01 9.01 48.01 9.01 47 8 C46.875 4.875 46.875 4.875 47 2 C47.66 2 48.32 2 49 2 C49 1.34 49 0.68 49 0 C49.99 0.33 50.98 0.66 52 1 C52.2165625 1.9590625 52.2165625 1.9590625 52.4375 2.9375 C52.80104993 5.20311706 52.80104993 5.20311706 55.0625 6.25 C55.701875 6.4975 56.34125 6.745 57 7 C56.1875 8.9375 56.1875 8.9375 55 11 C51.44277137 12.18574288 48.62223456 12.11990193 44.86645508 12.11352539 C44.14425278 12.11367142 43.42205048 12.11381744 42.67796326 12.1139679 C40.29178866 12.11327145 37.90569221 12.1054916 35.51953125 12.09765625 C33.8647211 12.09579112 32.20991039 12.09436766 30.55509949 12.09336853 C26.20018997 12.08955085 21.84531382 12.07972695 17.49041748 12.06866455 C13.04635062 12.05843433 8.60227837 12.05386745 4.15820312 12.04882812 C-4.56121323 12.03810402 -13.28060246 12.02103657 -22 12 C-22 11.67 -22 11.34 -22 11 C-13.585 10.505 -13.585 10.505 -5 10 C-5 8.68 -5 7.36 -5 6 C-4.01 5.67 -3.02 5.34 -2 5 C-0.78130071 2.49552484 -0.78130071 2.49552484 0 0 Z " fill="#C0A9AB" transform="translate(225,264)"/>
<path d="M0 0 C0.99 0.33 1.98 0.66 3 1 C3 1.66 3 2.32 3 3 C3.66 3 4.32 3 5 3 C3.60339756 6.33398442 2.11721895 7.93735862 -0.84375 9.98046875 C-1.59527344 10.50447266 -2.34679687 11.02847656 -3.12109375 11.56835938 C-4.29865234 12.36983398 -4.29865234 12.36983398 -5.5 13.1875 C-6.28503906 13.73341797 -7.07007813 14.27933594 -7.87890625 14.84179688 C-13.59259905 18.79629953 -13.59259905 18.79629953 -16 20 C-15.625 18.0625 -15.625 18.0625 -15 16 C-14.34 15.67 -13.68 15.34 -13 15 C-13 14.34 -13 13.68 -13 13 C-14.65 12.67 -16.3 12.34 -18 12 C-15 9 -12 6 -9 3 C-9.99 2.67 -10.98 2.34 -12 2 C-8.06329512 0.68776504 -5.87511856 1.75703744 -2 3 C-1.34 2.01 -0.68 1.02 0 0 Z " fill="#E1D7D7" transform="translate(331,241)"/>
<path d="M0 0 C-0.33 0.66 -0.66 1.32 -1 2 C-0.01 2.33 0.98 2.66 2 3 C2 3.66 2 4.32 2 5 C1.01 5 0.02 5 -1 5 C-1 5.66 -1 6.32 -1 7 C-4.88563725 8.29521242 -8.57800269 8.14503464 -12.625 8.125 C-13.41390625 8.12886719 -14.2028125 8.13273437 -15.015625 8.13671875 C-20.87334606 8.12665394 -20.87334606 8.12665394 -22 7 C-22.04092937 4.66702567 -22.04241723 2.33294775 -22 0 C-18.89635771 -0.19696449 -15.79207808 -0.38093262 -12.6875 -0.5625 C-11.36588867 -0.64661133 -11.36588867 -0.64661133 -10.01757812 -0.73242188 C-8.74624023 -0.80493164 -8.74624023 -0.80493164 -7.44921875 -0.87890625 C-6.27879028 -0.94960327 -6.27879028 -0.94960327 -5.0847168 -1.02172852 C-3 -1 -3 -1 0 0 Z " fill="#EDEAE9" transform="translate(212,306)"/>
<path d="M0 0 C1.32 0 2.64 0 4 0 C4.33 0.99 4.66 1.98 5 3 C4.67 3.66 4.34 4.32 4 5 C3.95977609 7.3329866 3.95679753 9.66706666 4 12 C5.32 12.33 6.64 12.66 8 13 C7.67 13.99 7.34 14.98 7 16 C6.34 16 5.68 16 5 16 C5 17.65 5 19.3 5 21 C3.68 21 2.36 21 1 21 C0.67 21.66 0.34 22.32 0 23 C1.65 23.33 3.3 23.66 5 24 C4.67 25.65 4.34 27.3 4 29 C2.02 29.33 0.04 29.66 -2 30 C-2.99 28.35 -3.98 26.7 -5 25 C-4.01 24.34 -3.02 23.68 -2 23 C-2.99 22.67 -3.98 22.34 -5 22 C-4.34 21.34 -3.68 20.68 -3 20 C-2.34 20.33 -1.68 20.66 -1 21 C-1.66 18.69 -2.32 16.38 -3 14 C-2.34 13.67 -1.68 13.34 -1 13 C-1.99 12.34 -2.98 11.68 -4 11 C-4.1875 7.875 -4.1875 7.875 -4 5 C-3.01 5 -2.02 5 -1 5 C-1.66 4.67 -2.32 4.34 -3 4 C-3 3.34 -3 2.68 -3 2 C-2.01 2 -1.02 2 0 2 C0 1.34 0 0.68 0 0 Z M1 6 C2 8 2 8 2 8 Z M4 14 C4.33 14.66 4.66 15.32 5 16 C5.33 15.34 5.66 14.68 6 14 C5.34 14 4.68 14 4 14 Z M3 17 C2.34 17.66 1.68 18.32 1 19 C1.99 19 2.98 19 4 19 C3.67 18.34 3.34 17.68 3 17 Z " fill="#C4B7B6" transform="translate(244,236)"/>
<path d="M0 0 C0.144375 0.598125 0.28875 1.19625 0.4375 1.8125 C0.8872439 3.56150404 1.42892341 5.28677023 2 7 C2.14403348 8.33363703 2.24590423 9.67218046 2.31640625 11.01171875 C2.37924805 12.14770508 2.37924805 12.14770508 2.44335938 13.30664062 C2.48267578 14.09232422 2.52199219 14.87800781 2.5625 15.6875 C2.60568359 16.48478516 2.64886719 17.28207031 2.69335938 18.10351562 C2.79927368 20.06881447 2.90012551 22.03438496 3 24 C-3.15234375 24.09765625 -3.15234375 24.09765625 -5 24 C-7.28683452 21.71316548 -6.30601901 16.89203563 -6.32568359 13.80615234 C-6.23778711 8.32377312 -5.42048672 5.22530712 -2 1 C-1.34 0.67 -0.68 0.34 0 0 Z " fill="#E4DCDC" transform="translate(285,181)"/>
<path d="M0 0 C-2.94381488 1.67128932 -5.17383394 2.27731759 -8.546875 2.4140625 C-9.39121094 2.45273438 -10.23554688 2.49140625 -11.10546875 2.53125 C-11.97816406 2.5621875 -12.85085938 2.593125 -13.75 2.625 C-14.63816406 2.66367188 -15.52632813 2.70234375 -16.44140625 2.7421875 C-18.6273998 2.83620873 -20.81339062 2.92186143 -23 3 C-22.505 3.99 -22.505 3.99 -22 5 C-22.33 5.66 -22.66 6.32 -23 7 C-23.99 7.33 -24.98 7.66 -26 8 C-26.73323796 10.01508358 -26.73323796 10.01508358 -27 12 C-28.32 12 -29.64 12 -31 12 C-32.25 5.375 -32.25 5.375 -30 2 C-45.51 2 -61.02 2 -77 2 C-77 1.67 -77 1.34 -77 1 C-67.99403694 0.86902179 -58.98806618 0.73859044 -49.98208523 0.60884857 C-45.79982048 0.54858107 -41.61755858 0.48812839 -37.43530273 0.42724609 C-33.39583518 0.36844933 -29.35636075 0.31014738 -25.31688118 0.25218201 C-23.77919322 0.23003091 -22.24150777 0.20770442 -20.703825 0.18519592 C-18.54270948 0.15359224 -16.3815857 0.12262396 -14.22045898 0.09179688 C-12.37846169 0.06514954 -12.37846169 0.06514954 -10.49925232 0.03796387 C-6.99919761 -0.00000871 -3.50023064 -0.00658699 0 0 Z " fill="#B29C9E" transform="translate(304,214)"/>
<path d="M0 0 C2.31 0 4.62 0 7 0 C6.01 0.33 5.02 0.66 4 1 C4.83333333 3.16666667 4.83333333 3.16666667 7 4 C7.99 4.66 8.98 5.32 10 6 C11.65583225 6.69313908 13.32110979 7.36474424 15 8 C14.67 9.65 14.34 11.3 14 13 C12.35 13 10.7 13 9 13 C8.67 12.34 8.34 11.68 8 11 C7.01 11.495 7.01 11.495 6 12 C6.33 10.35 6.66 8.7 7 7 C6.21625 7.33 5.4325 7.66 4.625 8 C2 9 2 9 0 9 C0.33 10.32 0.66 11.64 1 13 C-0.32 13.99 -1.64 14.98 -3 16 C-3.99 15.34 -4.98 14.68 -6 14 C-5.625 11.0625 -5.625 11.0625 -5 8 C-4.34 7.67 -3.68 7.34 -3 7 C-2.34444881 4.47266765 -2.34444881 4.47266765 -2 2 C-1.34 2 -0.68 2 0 2 C0 1.34 0 0.68 0 0 Z " fill="#D7CAC9" transform="translate(267,247)"/>
<path d="M0 0 C2.31 0 4.62 0 7 0 C7 6.6 7 13.2 7 20 C5.02 20 3.04 20 1 20 C0.34 18.02 -0.32 16.04 -1 14 C-0.34 14 0.32 14 1 14 C1 13.34 1 12.68 1 12 C1.66 12 2.32 12 3 12 C3 10.35 3 8.7 3 7 C1.35 7 -0.3 7 -2 7 C-2.33 6.01 -2.66 5.02 -3 4 C-2.34 4 -1.68 4 -1 4 C-0.67 2.68 -0.34 1.36 0 0 Z " fill="#F6F2F3" transform="translate(197,235)"/>
<path d="M0 0 C2.64 0 5.28 0 8 0 C9 4.875 9 4.875 9 6 C9.66 6 10.32 6 11 6 C11.33 6.99 11.66 7.98 12 9 C9.69 9 7.38 9 5 9 C5 9.66 5 10.32 5 11 C4.34 11 3.68 11 3 11 C2.67 11.99 2.34 12.98 2 14 C1.01 13.01 0.02 12.02 -1 11 C-1.33 11.66 -1.66 12.32 -2 13 C-3.65 13 -5.3 13 -7 13 C-7.33 11.35 -7.66 9.7 -8 8 C-6.02253397 7.26919734 -4.01927511 6.60578253 -2 6 C-1.34 6.33 -0.68 6.66 0 7 C0 5.35 0 3.7 0 2 C0.66 2.33 1.32 2.66 2 3 C2.33 2.34 2.66 1.68 3 1 C2.01 0.67 1.02 0.34 0 0 Z " fill="#C4B0B1" transform="translate(228,247)"/>
<path d="M0 0 C0.99 0.66 1.98 1.32 3 2 C2.67 3.32 2.34 4.64 2 6 C1.01 6 0.02 6 -1 6 C-1 9.3 -1 12.6 -1 16 C-0.34 16 0.32 16 1 16 C1 17.32 1 18.64 1 20 C-3.62 20 -8.24 20 -13 20 C-12.01 16.7 -11.02 13.4 -10 10 C-9.67 10 -9.34 10 -9 10 C-9 11.98 -9 13.96 -9 16 C-8.01 16 -7.02 16 -6 16 C-6 12.37 -6 8.74 -6 5 C-5.67 5.66 -5.34 6.32 -5 7 C-2.65941363 4.87219421 -1.29299694 2.88437779 0 0 Z " fill="#F1E7E7" transform="translate(311,293)"/>
<path d="M0 0 C1.32 0 2.64 0 4 0 C4.66 1.65 5.32 3.3 6 5 C5.34 5.66 4.68 6.32 4 7 C7.44450737 9.29633824 9.93812283 9.54016485 14 10 C12.68 10.33 11.36 10.66 10 11 C10.33 11.66 10.66 12.32 11 13 C14.04581269 13.46954261 14.04581269 13.46954261 17.5625 13.625 C18.76003906 13.69976562 19.95757812 13.77453125 21.19140625 13.8515625 C22.11824219 13.90054687 23.04507812 13.94953125 24 14 C24 14.33 24 14.66 24 15 C6.45907077 16.08749733 6.45907077 16.08749733 -0.3359375 10.60546875 C-1.15964844 9.81076172 -1.15964844 9.81076172 -2 9 C-2.57621094 8.484375 -3.15242187 7.96875 -3.74609375 7.4375 C-4.15988281 6.963125 -4.57367188 6.48875 -5 6 C-4.6875 3.8125 -4.6875 3.8125 -4 2 C-3.01 2 -2.02 2 -1 2 C-0.67 1.34 -0.34 0.68 0 0 Z " fill="#E2D6D7" transform="translate(235,256)"/>
<path d="M0 0 C1.125 1.625 1.125 1.625 2 4 C0.96937777 8.30987478 -0.95024962 12.08684017 -3 16 C-5.64 16 -8.28 16 -11 16 C-10.55862804 10.26216456 -8.17947381 5.70482884 -5 1 C-3 0 -3 0 0 0 Z " fill="#F0E8E7" transform="translate(238,189)"/>
<path d="M0 0 C2.625 2.1875 2.625 2.1875 4 4 C3.01 4.99 2.02 5.98 1 7 C0.22076172 6.60167969 0.22076172 6.60167969 -0.57421875 6.1953125 C-4.33020694 4.29301903 -8.05225879 2.48040295 -12 1 C-12 2.65 -12 4.3 -12 6 C-12.99 6.33 -13.98 6.66 -15 7 C-15 5.02 -15 3.04 -15 1 C-16.98 1.33 -18.96 1.66 -21 2 C-21 0.68 -21 -0.64 -21 -2 C-13.82237207 -4.29684094 -6.78929314 -2.82198445 0 0 Z " fill="#E7DEDD" transform="translate(264,222)"/>
<path d="M0 0 C2.05078125 0.03255208 4.1015625 0.06510417 6.15234375 0.09765625 C6.02734375 1.97265625 6.02734375 1.97265625 5.15234375 4.09765625 C3.16511107 4.80146782 1.16456422 5.46883735 -0.84765625 6.09765625 C-1.17765625 7.08765625 -1.50765625 8.07765625 -1.84765625 9.09765625 C-0.13873126 12.4122633 -0.13873126 12.4122633 3.27734375 12.78515625 C4.22609375 12.88828125 5.17484375 12.99140625 6.15234375 13.09765625 C5.02734375 15.09765625 5.02734375 15.09765625 3.15234375 17.09765625 C0.27734375 17.66015625 0.27734375 17.66015625 -2.84765625 17.09765625 C-6.17040029 14.641715 -7.62383633 13.17199185 -8.47265625 9.09765625 C-7.65117697 5.15455571 -5.8627499 3.67151668 -2.84765625 1.09765625 C-1.84765625 0.09765625 -1.84765625 0.09765625 0 0 Z " fill="#E8DDDD" transform="translate(195.84765625,186.90234375)"/>
<path d="M0 0 C0.66 1.32 1.32 2.64 2 4 C1.67 4.33 1.34 4.66 1 5 C1.66 5.33 2.32 5.66 3 6 C3 6.99 3 7.98 3 9 C2.34 9 1.68 9 1 9 C1.33 11.31 1.66 13.62 2 16 C5.465 15.505 5.465 15.505 9 15 C8.67 16.32 8.34 17.64 8 19 C3.71 19 -0.58 19 -5 19 C-5.33 18.01 -5.66 17.02 -6 16 C-4.68 16 -3.36 16 -2 16 C-2 13.69 -2 11.38 -2 9 C-3.65 8.67 -5.3 8.34 -7 8 C-6.67 7.01 -6.34 6.02 -6 5 C-4.02 5.495 -4.02 5.495 -2 6 C-2 4.35 -2 2.7 -2 1 C-1.34 0.67 -0.68 0.34 0 0 Z " fill="#FCF7F5" transform="translate(251,251)"/>
<path d="M0 0 C-0.66 1.65 -1.32 3.3 -2 5 C-2.66 5 -3.32 5 -4 5 C-3.67 5.33 -3.34 5.66 -3 6 C-2.67 6.99 -2.34 7.98 -2 9 C-1.34 9.33 -0.68 9.66 0 10 C0 11.98 0 13.96 0 16 C-4.84146109 14.53289058 -8.55948972 11.6487256 -12 8 C-12 7.34 -12 6.68 -12 6 C-11.34 6 -10.68 6 -10 6 C-10 5.34 -10 4.68 -10 4 C-6.68165449 0.77646436 -4.65842688 -0.53239164 0 0 Z " fill="#E6DDDD" transform="translate(228,238)"/>
<path d="M0 0 C1.03125 0.268125 2.0625 0.53625 3.125 0.8125 C3.455 1.8025 3.785 2.7925 4.125 3.8125 C3.135 4.1425 2.145 4.4725 1.125 4.8125 C0.67125 5.616875 0.2175 6.42125 -0.25 7.25 C-2.1586851 10.25984958 -3.52465669 10.81645199 -6.875 11.8125 C-7.205 10.4925 -7.535 9.1725 -7.875 7.8125 C-11.835 7.4825 -15.795 7.1525 -19.875 6.8125 C-19.875 6.4825 -19.875 6.1525 -19.875 5.8125 C-19.22273438 5.79832031 -18.57046875 5.78414063 -17.8984375 5.76953125 C-11.69441178 5.50239838 -11.69441178 5.50239838 -6.6875 2.1875 C-3.875 -0.1875 -3.875 -0.1875 0 0 Z " fill="#EEE5E6" transform="translate(314.875,253.1875)"/>
<path d="M0 0 C2.34590913 2.13264466 3.9641112 3.97865766 5 7 C4.67231698 10.2112936 4.02051744 12.93844769 3 16 C1.02 16 -0.96 16 -3 16 C-3.12117187 15.38511719 -3.24234375 14.77023438 -3.3671875 14.13671875 C-3.53476563 13.32847656 -3.70234375 12.52023438 -3.875 11.6875 C-4.03742188 10.88699219 -4.19984375 10.08648437 -4.3671875 9.26171875 C-4.94478999 6.74698882 -4.94478999 6.74698882 -7 4 C-5.68 4 -4.36 4 -3 4 C-2.67 4.66 -2.34 5.32 -2 6 C-1.34 4.02 -0.68 2.04 0 0 Z " fill="#E5D8D9" transform="translate(231,171)"/>
<path d="M0 0 C3.25 -0.375 3.25 -0.375 7 0 C11 4.71794872 11 4.71794872 11 8 C11.66 8 12.32 8 13 8 C13 8.66 13 9.32 13 10 C11.35 9.67 9.7 9.34 8 9 C7.34 10.65 6.68 12.3 6 14 C3.67490219 11.86197902 2.17832764 9.81401863 0.75 7 C0.39421875 6.319375 0.0384375 5.63875 -0.328125 4.9375 C-1 3 -1 3 0 0 Z " fill="#D9CECF" transform="translate(239,285)"/>
<path d="M0 0 C2.9375 1 2.9375 1 4.4375 3.3125 C5.00950864 6.38704645 4.64178601 7.44357099 2.9375 10 C0.2975 10 -2.3425 10 -5.0625 10 C-6.38811852 3.61292897 -6.38811852 3.61292897 -5 1 C-3.0625 0 -3.0625 0 0 0 Z " fill="#E0D6D5" transform="translate(214.0625,175)"/>
<path d="M0 0 C1.5 2.3125 1.5 2.3125 2 5 C1.125 7.3125 1.125 7.3125 0 9 C-3.375 9.125 -3.375 9.125 -7 9 C-7.66 8.34 -8.32 7.68 -9 7 C-8.75 3.4375 -8.75 3.4375 -8 0 C-5.01122021 -1.4943899 -3.14997454 -0.91874257 0 0 Z " fill="#E7D7D6" transform="translate(203,176)"/>
<path d="M0 0 C0 0.33 0 0.66 0 1 C-1.65 1 -3.3 1 -5 1 C-5 1.66 -5 2.32 -5 3 C-0.71 3 3.58 3 8 3 C8 3.33 8 3.66 8 4 C7.02417969 4.02578125 6.04835938 4.0515625 5.04296875 4.078125 C3.77066406 4.13484375 2.49835938 4.1915625 1.1875 4.25 C-0.07707031 4.29640625 -1.34164063 4.3428125 -2.64453125 4.390625 C-6.47888681 4.69418945 -6.47888681 4.69418945 -9 9 C1.395 8.505 1.395 8.505 12 8 C12 8.66 12 9.32 12 10 C4.41 10 -3.18 10 -11 10 C-11.66 8.35 -12.32 6.7 -13 5 C-11.8125 2.25 -11.8125 2.25 -10 0 C-6.30581799 -1.231394 -3.7943739 -0.64432764 0 0 Z " fill="#CABEBF" transform="translate(295,285)"/>
<path d="M0 0 C3.38031785 1.4015952 5.23295312 3.26704374 7.5625 6.0625 C7.5625 7.0525 7.5625 8.0425 7.5625 9.0625 C6.2425 8.0725 4.9225 7.0825 3.5625 6.0625 C3.5625 9.3625 3.5625 12.6625 3.5625 16.0625 C1.5625 14.0625 1.5625 14.0625 0.25 11.75 C-1.64194875 8.73689644 -3.860215 6.50047229 -6.4375 4.0625 C-3.18035714 0.08154762 -3.18035714 0.08154762 0 0 Z " fill="#DFD1D1" transform="translate(315.4375,263.9375)"/>
<path d="M0 0 C6.93 0 13.86 0 21 0 C21 0.33 21 0.66 21 1 C14.4 1 7.8 1 1 1 C1.33 13.87 1.66 26.74 2 40 C8.27 40.33 14.54 40.66 21 41 C17.11743359 43.58837761 13.86776783 43.25793118 9.375 43.1875 C8.19164062 43.1865332 8.19164062 43.1865332 6.984375 43.18554688 C1.1403612 43.1403612 1.1403612 43.1403612 0 42 C-0.08874135 38.89748799 -0.11518455 35.8173188 -0.09765625 32.71484375 C-0.0962413 31.78402481 -0.09482635 30.85320587 -0.09336853 29.8941803 C-0.08775172 26.90858809 -0.0751964 23.92306971 -0.0625 20.9375 C-0.05748716 18.91862087 -0.05292388 16.89974057 -0.04882812 14.88085938 C-0.03862587 9.92052129 -0.01905382 4.9603437 0 0 Z " fill="#A88889" transform="translate(287,224)"/>
<path d="M0 0 C4.50322732 -0.17659715 8.02793243 -0.25441673 12 2 C16 6.32432432 16 6.32432432 16 9 C14.02 9.99 14.02 9.99 12 11 C12 10.34 12 9.68 12 9 C11.34 9 10.68 9 10 9 C9.34 7.35 8.68 5.7 8 4 C3.71 4 -0.58 4 -5 4 C-5 3.34 -5 2.68 -5 2 C-3.35 2 -1.7 2 0 2 C0 1.34 0 0.68 0 0 Z " fill="#E8DEDC" transform="translate(295,284)"/>
<path d="M0 0 C0.66 0 1.32 0 2 0 C2 0.99 2 1.98 2 3 C2.66 3 3.32 3 4 3 C4.33 2.01 4.66 1.02 5 0 C4.5047783 3.66464055 3.9791794 5.70832354 1 8 C-1.75078884 8.91692961 -3.35948913 9.10886083 -6.1875 9.0625 C-8.0746875 9.0315625 -8.0746875 9.0315625 -10 9 C-10 8.34 -10 7.68 -10 7 C-10.66 6.67 -11.32 6.34 -12 6 C-10.59116501 3.9747997 -9.49611941 3.08966013 -7.0546875 2.6484375 C-6.33539063 2.57882813 -5.61609375 2.50921875 -4.875 2.4375 C-3.59625 2.293125 -2.3175 2.14875 -1 2 C-0.67 1.34 -0.34 0.68 0 0 Z " fill="#BEACAD" transform="translate(219,196)"/>
<path d="M0 0 C2.97 0.495 2.97 0.495 6 1 C7.125 7.75 7.125 7.75 6 10 C4.68 10 3.36 10 2 10 C1.67 9.34 1.34 8.68 1 8 C0.67 9.32 0.34 10.64 0 12 C-2.475 11.01 -2.475 11.01 -5 10 C-5 8.35 -5 6.7 -5 5 C-2.03 5.495 -2.03 5.495 1 6 C1 5.34 1 4.68 1 4 C0.34 3.67 -0.32 3.34 -1 3 C-0.67 2.01 -0.34 1.02 0 0 Z " fill="#E3CECD" transform="translate(222,216)"/>
<path d="M0 0 C0.66 0 1.32 0 2 0 C2 0.66 2 1.32 2 2 C2.66 2 3.32 2 4 2 C4.99 3.98 5.98 5.96 7 8 C5.02 8.33 3.04 8.66 1 9 C1.33 9.33 1.66 9.66 2 10 C1.01 10.495 1.01 10.495 0 11 C0 12.65 0 14.3 0 16 C-0.33 16 -0.66 16 -1 16 C-1 14.35 -1 12.7 -1 11 C-2.65 10.67 -4.3 10.34 -6 10 C-6 8.35 -6 6.7 -6 5 C-4.02 4.01 -2.04 3.02 0 2 C0 1.34 0 0.68 0 0 Z " fill="#CABCBB" transform="translate(267,225)"/>
<path d="M0 0 C1.49080078 0.02707031 1.49080078 0.02707031 3.01171875 0.0546875 C3.77097656 0.07789063 4.53023437 0.10109375 5.3125 0.125 C5.3125 0.785 5.3125 1.445 5.3125 2.125 C6.3025 2.455 7.2925 2.785 8.3125 3.125 C7.9825 3.785 7.6525 4.445 7.3125 5.125 C7.272508 7.12460012 7.26903201 9.12547242 7.3125 11.125 C5.6625 11.455 4.0125 11.785 2.3125 12.125 C2.2854957 10.66676788 2.26610213 9.20839325 2.25 7.75 C2.23839844 6.93789062 2.22679687 6.12578125 2.21484375 5.2890625 C2.3125 3.125 2.3125 3.125 3.3125 1.125 C-2.60947054 1.22679141 -2.60947054 1.22679141 -7.0625 4.6875 C-7.59875 5.491875 -8.135 6.29625 -8.6875 7.125 C-9.3475 7.125 -10.0075 7.125 -10.6875 7.125 C-8.6184634 1.07704685 -6.28215674 -0.14781545 0 0 Z " fill="#F3EBEA" transform="translate(198.6875,185.875)"/>
<path d="M0 0 C2.625 1.4375 2.625 1.4375 5 3 C4.875 4.75 4.875 4.75 4 7 C-1.22222222 11 -1.22222222 11 -4 11 C-4.103125 10.360625 -4.20625 9.72125 -4.3125 9.0625 C-4.539375 8.381875 -4.76625 7.70125 -5 7 C-5.99 6.67 -6.98 6.34 -8 6 C-7.01 6 -6.02 6 -5 6 C-5.33 4.68 -5.66 3.36 -6 2 C-5.38125 1.855625 -4.7625 1.71125 -4.125 1.5625 C-1.96741678 1.06847775 -1.96741678 1.06847775 0 0 Z " fill="#DFD5D4" transform="translate(312,241)"/>
<path d="M0 0 C5.5492228 1.58549223 5.5492228 1.58549223 8 3 C9 6.1875 9 6.1875 9 9 C6.04335481 10.4783226 3.25770263 10.06032783 0 10 C0 6.7 0 3.4 0 0 Z " fill="#F5F2F1" transform="translate(299,245)"/>
<path d="M0 0 C-0.33 1.32 -0.66 2.64 -1 4 C-0.34 4 0.32 4 1 4 C1 3.34 1 2.68 1 2 C2.98 1.34 4.96 0.68 7 0 C6.8125 2.375 6.8125 2.375 6 5 C4.34795544 5.70211894 2.68076231 6.36971413 1 7 C0.11306697 9.04105639 0.11306697 9.04105639 0 11 C-1.32 11.33 -2.64 11.66 -4 12 C-3.79375 11.0925 -3.5875 10.185 -3.375 9.25 C-2.9872755 5.88972103 -3.19588033 4.75924185 -5 2 C-2 0 -2 0 0 0 Z " fill="#EAE1E0" transform="translate(240,231)"/>
<path d="M0 0 C3 0.125 3 0.125 4 1.125 C4.04092937 3.45797433 4.04241723 5.79205225 4 8.125 C0.37673261 9.3327558 -0.64146369 8.66811128 -4 7.125 C-4.04254356 5.12545254 -4.04080783 3.12458364 -4 1.125 C-3 0.125 -3 0.125 0 0 Z " fill="#F3F0ED" transform="translate(251,240.875)"/>
<path d="M0 0 C0.99 0.33 1.98 0.66 3 1 C3.144375 1.639375 3.28875 2.27875 3.4375 2.9375 C3.80104993 5.20311706 3.80104993 5.20311706 6.0625 6.25 C6.701875 6.4975 7.34125 6.745 8 7 C7.67 7.99 7.34 8.98 7 10 C3.625 10.125 3.625 10.125 0 10 C-2 8 -2 8 -2.125 4.875 C-2.08375 3.92625 -2.0425 2.9775 -2 2 C-1.34 2 -0.68 2 0 2 C0 1.34 0 0.68 0 0 Z " fill="#D9CDCD" transform="translate(274,264)"/>
<path d="M0 0 C-0.875 6.875 -0.875 6.875 -2 8 C-4.67058851 8.14115161 -7.32432238 8.04247107 -10 8 C-9.8125 5.125 -9.8125 5.125 -9 2 C-5.74197937 0.06279854 -3.84955327 0 0 0 Z " fill="#E9DCDB" transform="translate(237,197)"/>
<path d="M0 0 C0.9075 0.391875 1.815 0.78375 2.75 1.1875 C2.42 2.1775 2.09 3.1675 1.75 4.1875 C0.76 4.5175 -0.23 4.8475 -1.25 5.1875 C-1.98323796 7.20258358 -1.98323796 7.20258358 -2.25 9.1875 C-3.57 9.1875 -4.89 9.1875 -6.25 9.1875 C-6.58 6.8775 -6.91 4.5675 -7.25 2.1875 C-4.52596974 -0.53653026 -3.86366821 -0.96591705 0 0 Z " fill="#E0CDCD" transform="translate(279.25,216.8125)"/>
<path d="M0 0 C0 1.32 0 2.64 0 4 C-0.66 4 -1.32 4 -2 4 C-2 5.65 -2 7.3 -2 9 C-2.99 9.33 -3.98 9.66 -5 10 C-5 8.02 -5 6.04 -5 4 C-6.98 4.33 -8.96 4.66 -11 5 C-11 3.68 -11 2.36 -11 1 C-7.32589215 -0.17571451 -3.83070817 -0.07366746 0 0 Z " fill="#FEFAF7" transform="translate(254,219)"/>
<path d="M0 0 C0.99 0 1.98 0 3 0 C3 0.99 3 1.98 3 3 C4.98 2.67 6.96 2.34 9 2 C9 4.31 9 6.62 9 9 C6.35261084 10.4606285 5.10551666 11 2 11 C0.39660152 7.88228073 -0.18974141 6.60988311 0.875 3.1875 C1.24625 2.465625 1.6175 1.74375 2 1 C1.34 0.67 0.68 0.34 0 0 Z " fill="#DED2D2" transform="translate(240,221)"/>
<path d="M0 0 C0.33 0 0.66 0 1 0 C1.37815631 4.37243229 0.34305827 6.65147145 -2 10.3125 C-2.556875 11.19550781 -3.11375 12.07851563 -3.6875 12.98828125 C-4.120625 13.65214844 -4.55375 14.31601562 -5 15 C-5.99 14.67 -6.98 14.34 -8 14 C-8.859375 12.171875 -8.859375 12.171875 -9 10 C-7.890625 8.078125 -7.890625 8.078125 -6.25 6.25 C-5.71890625 5.63640625 -5.1878125 5.0228125 -4.640625 4.390625 C-3 3 -3 3 0 3 C0 2.01 0 1.02 0 0 Z " fill="#DDD2D0" transform="translate(257,317)"/>
<path d="M0 0 C0.99 0.33 1.98 0.66 3 1 C4.125 6.75 4.125 6.75 3 9 C0.35139573 9.59355614 -2.29197322 9.74209269 -5 10 C-5 8.68 -5 7.36 -5 6 C-4.01 5.67 -3.02 5.34 -2 5 C-0.78130071 2.49552484 -0.78130071 2.49552484 0 0 Z " fill="#EFE6E4" transform="translate(225,264)"/>
<path d="M0 0 C0.33 0 0.66 0 1 0 C1 1.98 1 3.96 1 6 C4.3 6 7.6 6 11 6 C11 7.32 11 8.64 11 10 C6.38 10 1.76 10 -3 10 C-2.01 6.7 -1.02 3.4 0 0 Z " fill="#F2ECE9" transform="translate(301,303)"/>
<path d="M0 0 C2.97 0.495 2.97 0.495 6 1 C6.33 2.32 6.66 3.64 7 5 C6.01 5.33 5.02 5.66 4 6 C4.33 6.99 4.66 7.98 5 9 C2.69 9.33 0.38 9.66 -2 10 C-2 8.02 -2 6.04 -2 4 C-1.01 4 -0.02 4 1 4 C0.67 2.68 0.34 1.36 0 0 Z " fill="#D3C8CA" transform="translate(269,232)"/>
<path d="M0 0 C0.66 0 1.32 0 2 0 C2 1.98 2 3.96 2 6 C2.66 6.33 3.32 6.66 4 7 C3.34 7 2.68 7 2 7 C2.33 8.32 2.66 9.64 3 11 C1.68 11.99 0.36 12.98 -1 14 C-1.99 13.34 -2.98 12.68 -4 12 C-3.625 9.0625 -3.625 9.0625 -3 6 C-2.34 5.67 -1.68 5.34 -1 5 C-0.34444881 2.47266765 -0.34444881 2.47266765 0 0 Z " fill="#C6B7B8" transform="translate(265,249)"/>
<path d="M0 0 C1.65 0.33 3.3 0.66 5 1 C5.79953138 4.28696233 6.09658936 5.71023192 5 9 C1.04 9 -2.92 9 -7 9 C-7 8.67 -7 8.34 -7 8 C-4.69 8 -2.38 8 0 8 C0 5.36 0 2.72 0 0 Z " fill="#C8B8B9" transform="translate(231,235)"/>
<path d="M0 0 C1.32 0 2.64 0 4 0 C5.09898702 3.29696105 4.87124444 4.40494903 4.0625 7.6875 C3.86785156 8.49574219 3.67320312 9.30398437 3.47265625 10.13671875 C3.31667969 10.75160156 3.16070312 11.36648437 3 12 C2.34 11.67 1.68 11.34 1 11 C1 9.68 1 8.36 1 7 C-0.32 7 -1.64 7 -3 7 C-3.33 8.32 -3.66 9.64 -4 11 C-4 9.02 -4 7.04 -4 5 C-3.01 5 -2.02 5 -1 5 C-1.66 4.67 -2.32 4.34 -3 4 C-3 3.34 -3 2.68 -3 2 C-2.01 2 -1.02 2 0 2 C0 1.34 0 0.68 0 0 Z " fill="#A39293" transform="translate(244,236)"/>
<path d="M0 0 C2.64 0.33 5.28 0.66 8 1 C6.68 1.33 5.36 1.66 4 2 C4.33 2.66 4.66 3.32 5 4 C8.04581269 4.46954261 8.04581269 4.46954261 11.5625 4.625 C12.76003906 4.69976562 13.95757812 4.77453125 15.19140625 4.8515625 C16.11824219 4.90054687 17.04507812 4.94953125 18 5 C18 5.33 18 5.66 18 6 C15.27022936 6.08126109 12.5428983 6.14061663 9.8125 6.1875 C9.04357422 6.21263672 8.27464844 6.23777344 7.48242188 6.26367188 C2.7802972 6.32421425 -0.11834041 5.96375211 -4 3 C-3.34 2.67 -2.68 2.34 -2 2 C-1.34 2.33 -0.68 2.66 0 3 C0 2.01 0 1.02 0 0 Z " fill="#D7C9CA" transform="translate(241,265)"/>
<path d="M0 0 C2.31 0 4.62 0 7 0 C7 0.66 7 1.32 7 2 C7.66 2.33 8.32 2.66 9 3 C8 4 8 4 5.05859375 4.09765625 C3.26615234 4.08025391 3.26615234 4.08025391 1.4375 4.0625 C-0.35880859 4.04896484 -0.35880859 4.04896484 -2.19140625 4.03515625 C-3.11824219 4.02355469 -4.04507812 4.01195312 -5 4 C-5 3.34 -5 2.68 -5 2 C-3.35 2 -1.7 2 0 2 C0 1.34 0 0.68 0 0 Z " fill="#FAEEEC" transform="translate(295,284)"/>
<path d="M0 0 C2.0625 0.9375 2.0625 0.9375 4 3 C4.05989746 6.07110598 3.58052245 8.99011728 3 12 C2.34 12 1.68 12 1 12 C0.01 9.69 -0.98 7.38 -2 5 C-1.34 5 -0.68 5 0 5 C-0.33 4.01 -0.66 3.02 -1 2 C-0.67 1.34 -0.34 0.68 0 0 Z " fill="#F3EAEA" transform="translate(220,187)"/>
<path d="M0 0 C0 3 0 3 -1 5 C-0.34 5.66 0.32 6.32 1 7 C-1.75078884 7.91692961 -3.35948913 8.10886083 -6.1875 8.0625 C-8.0746875 8.0315625 -8.0746875 8.0315625 -10 8 C-8.35 6.68 -6.7 5.36 -5 4 C-6.65 3.67 -8.3 3.34 -10 3 C-10 2.67 -10 2.34 -10 2 C-9.04287109 1.90912109 -9.04287109 1.90912109 -8.06640625 1.81640625 C-6.82697266 1.69072266 -6.82697266 1.69072266 -5.5625 1.5625 C-4.73878906 1.48128906 -3.91507813 1.40007812 -3.06640625 1.31640625 C-1.01337975 1.21069185 -1.01337975 1.21069185 0 0 Z " fill="#C7B6B8" transform="translate(206,197)"/>
<path d="M0 0 C1.2065625 0.0309375 1.2065625 0.0309375 2.4375 0.0625 C2.7675 1.3825 3.0975 2.7025 3.4375 4.0625 C1.7875 5.3825 0.1375 6.7025 -1.5625 8.0625 C-2.2225 7.7325 -2.8825 7.4025 -3.5625 7.0625 C-3.60504356 5.06295254 -3.60330783 3.06208364 -3.5625 1.0625 C-2.5625 0.0625 -2.5625 0.0625 0 0 Z " fill="#F4F1EF" transform="translate(257.5625,285.9375)"/>
<path d="M0 0 C0 0.33 0 0.66 0 1 C-1.65 1 -3.3 1 -5 1 C-5 1.66 -5 2.32 -5 3 C-0.71 3 3.58 3 8 3 C8 3.33 8 3.66 8 4 C7.01257813 4.06058594 6.02515625 4.12117188 5.0078125 4.18359375 C3.72648437 4.26738281 2.44515625 4.35117187 1.125 4.4375 C-0.15117187 4.51871094 -1.42734375 4.59992188 -2.7421875 4.68359375 C-5.88300152 4.79206027 -5.88300152 4.79206027 -8 6 C-8.66 4.02 -9.32 2.04 -10 0 C-6.30581799 -1.231394 -3.7943739 -0.64432764 0 0 Z " fill="#C8B6B6" transform="translate(295,285)"/>
<path d="M0 0 C0.99 0 1.98 0 3 0 C3.25 2.75 3.25 2.75 3 6 C1 8.375 1 8.375 -1 10 C-1.99 9.67 -2.98 9.34 -4 9 C-2.68 6.03 -1.36 3.06 0 0 Z " fill="#FCF7F5" transform="translate(208,193)"/>
<path d="M0 0 C0 0.66 0 1.32 0 2 C1.32 2.66 2.64 3.32 4 4 C4 4.66 4 5.32 4 6 C3.01 6.33 2.02 6.66 1 7 C1 6.01 1 5.02 1 4 C0.34 4 -0.32 4 -1 4 C-1 3.01 -1 2.02 -1 1 C-1.598125 1.66 -2.19625 2.32 -2.8125 3 C-5 5 -5 5 -8 5 C-8 5.66 -8 6.32 -8 7 C-8.66 6.67 -9.32 6.34 -10 6 C-9.67 5.34 -9.34 4.68 -9 4 C-8.34 4 -7.68 4 -7 4 C-7 3.34 -7 2.68 -7 2 C-4 0 -4 0 0 0 Z " fill="#CDBDBD" transform="translate(189,264)"/>
<path d="M0 0 C4.875 0.875 4.875 0.875 6 2 C6.04063832 3.66617115 6.042721 5.33388095 6 7 C3.03 6.505 3.03 6.505 0 6 C0 4.02 0 2.04 0 0 Z " fill="#C7B3B2" transform="translate(278,263)"/>
<path d="M0 0 C2.78633115 4.17949673 4 6.93375326 4 12 C2.68 11.34 1.36 10.68 0 10 C0 9.34 0 8.68 0 8 C-0.66 8 -1.32 8 -2 8 C-2 7.01 -2 6.02 -2 5 C-1.34 5 -0.68 5 0 5 C0 3.35 0 1.7 0 0 Z " fill="#EEE6E5" transform="translate(239,245)"/>
<path d="M0 0 C0 1.65 0 3.3 0 5 C-1.98 5.66 -3.96 6.32 -6 7 C-6.1875 4.625 -6.1875 4.625 -6 2 C-3 0 -3 0 0 0 Z " fill="#DDBCBB" transform="translate(223,263)"/>
<path d="M0 0 C0.928125 0.20625 1.85625 0.4125 2.8125 0.625 C2.8125 1.615 2.8125 2.605 2.8125 3.625 C-0.27559695 5.38962683 -1.42062136 5.625 -5.1875 5.625 C-5.5175 4.305 -5.8475 2.985 -6.1875 1.625 C-3.1875 -0.375 -3.1875 -0.375 0 0 Z " fill="#C5AAA9" transform="translate(258.1875,249.375)"/>
<path d="M0 0 C1.2065625 0.0309375 1.2065625 0.0309375 2.4375 0.0625 C2.4375 1.7125 2.4375 3.3625 2.4375 5.0625 C0.7875 5.3925 -0.8625 5.7225 -2.5625 6.0625 C-2.94468767 4.40635343 -3.27645102 2.73792976 -3.5625 1.0625 C-2.5625 0.0625 -2.5625 0.0625 0 0 Z " fill="#E6D0D0" transform="translate(223.5625,230.9375)"/>
<path d="M0 0 C1.65 0 3.3 0 5 0 C5.33 1.65 5.66 3.3 6 5 C4.34385343 5.38218767 2.67542976 5.71395102 1 6 C0 5 0 5 -0.0625 2.4375 C-0.041875 1.633125 -0.02125 0.82875 0 0 Z " fill="#E1D4D2" transform="translate(276,231)"/>
<path d="M0 0 C2.64 0 5.28 0 8 0 C8 1.65 8 3.3 8 5 C7.67 3.68 7.34 2.36 7 1 C4.75928906 2.00445663 3.12245015 2.87754985 1.375 4.625 C0.92125 5.07875 0.4675 5.5325 0 6 C-0.66 6 -1.32 6 -2 6 C-2 6.99 -2 7.98 -2 9 C-2.66 8.67 -3.32 8.34 -4 8 C-2.68 5.36 -1.36 2.72 0 0 Z " fill="#C2A4A3" transform="translate(267,285)"/>
<path d="M0 0 C-0.1875 2.375 -0.1875 2.375 -1 5 C-3.5625 6.3125 -3.5625 6.3125 -6 7 C-6 5.02 -6 3.04 -6 1 C-3 0 -3 0 0 0 Z " fill="#CEBCBC" transform="translate(284,221)"/>
<path d="M0 0 C2.64 0 5.28 0 8 0 C7.67 1.32 7.34 2.64 7 4 C4.69 4 2.38 4 0 4 C-0.33 3.34 -0.66 2.68 -1 2 C-0.67 1.34 -0.34 0.68 0 0 Z " fill="#F6EEED" transform="translate(194,187)"/>
<path d="M0 0 C1.02802734 0.00966797 2.05605469 0.01933594 3.11523438 0.02929688 C4.72301758 0.06700195 4.72301758 0.06700195 6.36328125 0.10546875 C7.44673828 0.11900391 8.53019531 0.13253906 9.64648438 0.14648438 C12.3234153 0.18186232 14.99934963 0.23122686 17.67578125 0.29296875 C17.67578125 0.62296875 17.67578125 0.95296875 17.67578125 1.29296875 C10.74578125 1.29296875 3.81578125 1.29296875 -3.32421875 1.29296875 C-3.32421875 1.95296875 -3.32421875 2.61296875 -3.32421875 3.29296875 C-4.97421875 3.29296875 -6.62421875 3.29296875 -8.32421875 3.29296875 C-5.79060787 0.07680384 -4.00404798 -0.06636544 0 0 Z " fill="#CEB4BD" transform="translate(294.32421875,177.70703125)"/>
<path d="M0 0 C0.99 0.66 1.98 1.32 3 2 C2.67 3.32 2.34 4.64 2 6 C1.01 6 0.02 6 -1 6 C-1 9.3 -1 12.6 -1 16 C-1.33 16 -1.66 16 -2 16 C-2.05423638 14.08364783 -2.09289963 12.16685075 -2.125 10.25 C-2.14820313 9.18265625 -2.17140625 8.1153125 -2.1953125 7.015625 C-2.00487687 4.07529894 -1.52670104 2.47638122 0 0 Z " fill="#BEA3A3" transform="translate(311,293)"/>
<path d="M0 0 C2.31 0 4.62 0 7 0 C6.01 0.33 5.02 0.66 4 1 C3.67 2.98 3.34 4.96 3 7 C2.01 7.33 1.02 7.66 0 8 C0 5.36 0 2.72 0 0 Z " fill="#D7CECD" transform="translate(267,247)"/>
<path d="M0 0 C1.32 0 2.64 0 4 0 C4 0.66 4 1.32 4 2 C4.99 2.33 5.98 2.66 7 3 C6.01 4.485 6.01 4.485 5 6 C4.67 5.67 4.34 5.34 4 5 C1.94603274 5.40929986 1.94603274 5.40929986 0 6 C0 4.02 0 2.04 0 0 Z " fill="#C5B5B5" transform="translate(249,235)"/>
<path d="M0 0 C-0.1875 1.8125 -0.1875 1.8125 -1 4 C-3.4375 5.8125 -3.4375 5.8125 -6 7 C-6.66 6.67 -7.32 6.34 -8 6 C-8 4 -8 4 -6.25 1.875 C-4 0 -4 0 0 0 Z " fill="#EFE6E5" transform="translate(242,222)"/>
<path d="M0 0 C1.49080078 0.02707031 1.49080078 0.02707031 3.01171875 0.0546875 C3.77097656 0.07789063 4.53023437 0.10109375 5.3125 0.125 C5.3125 1.115 5.3125 2.105 5.3125 3.125 C4.6525 3.125 3.9925 3.125 3.3125 3.125 C3.3125 2.465 3.3125 1.805 3.3125 1.125 C-2.60947054 1.22679141 -2.60947054 1.22679141 -7.0625 4.6875 C-7.59875 5.491875 -8.135 6.29625 -8.6875 7.125 C-9.3475 7.125 -10.0075 7.125 -10.6875 7.125 C-8.6184634 1.07704685 -6.28215674 -0.14781545 0 0 Z " fill="#C5B3B4" transform="translate(198.6875,185.875)"/>
<path d="M0 0 C-0.33 1.98 -0.66 3.96 -1 6 C-2.98 6.66 -4.96 7.32 -7 8 C-4.73913043 0 -4.73913043 0 0 0 Z " fill="#EFE8E6" transform="translate(274,254)"/>
<path d="M0 0 C2.31 0 4.62 0 7 0 C7 0.66 7 1.32 7 2 C6.34 2 5.68 2 5 2 C5 2.66 5 3.32 5 4 C2.69 4 0.38 4 -2 4 C-1.34 2.68 -0.68 1.36 0 0 Z " fill="#FDF8F5" transform="translate(212,200)"/>
<path d="M0 0 C0.99 0.33 1.98 0.66 3 1 C3 1.66 3 2.32 3 3 C3.99 3.33 4.98 3.66 6 4 C6.99 5.485 6.99 5.485 8 7 C7.2575 7.144375 6.515 7.28875 5.75 7.4375 C3.47972261 7.90187492 1.24240521 8.41863569 -1 9 C-1 8.01 -1 7.02 -1 6 C-0.01 6.33 0.98 6.66 2 7 C1.34 4.69 0.68 2.38 0 0 Z " fill="#A78F90" transform="translate(241,250)"/>
<path d="M0 0 C2.50357192 1.25178596 4.06433379 2.99981158 6 5 C5.01 5 4.02 5 3 5 C2.67 6.32 2.34 7.64 2 9 C1.67 8.34 1.34 7.68 1 7 C1.33 6.01 1.66 5.02 2 4 C0.02 4.99 0.02 4.99 -2 6 C-2 4.35 -2 2.7 -2 1 C-1.34 0.67 -0.68 0.34 0 0 Z " fill="#B2A1A4" transform="translate(272,250)"/>
<path d="M0 0 C0.99 1.32 1.98 2.64 3 4 C2.01 4 1.02 4 0 4 C-0.66 5.65 -1.32 7.3 -2 9 C-3.32 8.34 -4.64 7.68 -6 7 C-5.01 6.67 -4.02 6.34 -3 6 C-1.83333333 4.08333333 -1.83333333 4.08333333 -1 2 C-0.67 1.34 -0.34 0.68 0 0 Z " fill="#DBD3D3" transform="translate(179,244)"/>
<path d="M0 0 C1.32 0.33 2.64 0.66 4 1 C0.7 3.31 -2.6 5.62 -6 8 C-6.33 7.01 -6.66 6.02 -7 5 C-5.68 4.67 -4.36 4.34 -3 4 C-3 3.34 -3 2.68 -3 2 C-2.01 1.34 -1.02 0.68 0 0 Z " fill="#DDD1D0" transform="translate(193,225)"/>
<path d="M0 0 C2.97 0 5.94 0 9 0 C7.515 1.98 7.515 1.98 6 4 C4.02 3.34 2.04 2.68 0 2 C0 1.34 0 0.68 0 0 Z " fill="#FBFBF8" transform="translate(193,200)"/>
<path d="M0 0 C0.99 0.33 1.98 0.66 3 1 C2.25 5.75 2.25 5.75 0 8 C-1.125 5.6875 -1.125 5.6875 -2 3 C-1.34 2.01 -0.68 1.02 0 0 Z " fill="#E5DADA" transform="translate(284,287)"/>
<path d="M0 0 C0 0.33 0 0.66 0 1 C-1.98 1.33 -3.96 1.66 -6 2 C-6.33 2.99 -6.66 3.98 -7 5 C-8.32 5 -9.64 5 -11 5 C-11 3.68 -11 2.36 -11 1 C-7.32589215 -0.17571451 -3.83070817 -0.07366746 0 0 Z " fill="#E5D6D6" transform="translate(254,219)"/>
<path d="M0 0 C2.31 0.33 4.62 0.66 7 1 C6.34 2.65 5.68 4.3 5 6 C4.34 6 3.68 6 3 6 C2.01 4.02 1.02 2.04 0 0 Z " fill="#C9B7B5" transform="translate(247,304)"/>
<path d="M0 0 C2.31 0 4.62 0 7 0 C6.34 1.32 5.68 2.64 5 4 C2.03 3.505 2.03 3.505 -1 3 C-0.67 2.01 -0.34 1.02 0 0 Z " fill="#F9F2F0" transform="translate(270,244)"/>
<path d="M0 0 C0.66 0 1.32 0 2 0 C5 4.38461538 5 4.38461538 5 7 C4.01 7 3.02 7 2 7 C1.67 6.01 1.34 5.02 1 4 C0.01 4.33 -0.98 4.66 -2 5 C-1.34 3.35 -0.68 1.7 0 0 Z " fill="#CEBEBD" transform="translate(250,181)"/>
<path d="M0 0 C1.32 0 2.64 0 4 0 C4.66 1.65 5.32 3.3 6 5 C5.01 5.33 4.02 5.66 3 6 C2.67 5.01 2.34 4.02 2 3 C1.34 3 0.68 3 0 3 C0 2.01 0 1.02 0 0 Z " fill="#F5ECE9" transform="translate(235,256)"/>
<path d="M0 0 C0.99 0.33 1.98 0.66 3 1 C1.84826645 3.46800047 0.95216435 5.04783565 -1 7 C-3.125 6.625 -3.125 6.625 -5 6 C-4.01 5.67 -3.02 5.34 -2 5 C-0.78130071 2.49552484 -0.78130071 2.49552484 0 0 Z " fill="#D2C8C6" transform="translate(225,264)"/>
<path d="M0 0 C2.31 0.33 4.62 0.66 7 1 C6.01 2.485 6.01 2.485 5 4 C3.35 3.67 1.7 3.34 0 3 C0 2.01 0 1.02 0 0 Z " fill="#E0D7D5" transform="translate(255,255)"/>
<path d="M0 0 C0.66 0.33 1.32 0.66 2 1 C1.6875 2.9375 1.6875 2.9375 1 5 C0.01 5.33 -0.98 5.66 -2 6 C-2.33 6.66 -2.66 7.32 -3 8 C-3.99 7.67 -4.98 7.34 -6 7 C-6 6.34 -6 5.68 -6 5 C-4.34467377 3.98133771 -2.67739862 2.98189187 -1 2 C-0.67 1.34 -0.34 0.68 0 0 Z " fill="#C9B4B3" transform="translate(315,216)"/>
<path d="M0 0 C0.99 0 1.98 0 3 0 C3 0.66 3 1.32 3 2 C3.66 2.33 4.32 2.66 5 3 C4.360625 3.103125 3.72125 3.20625 3.0625 3.3125 C2.381875 3.539375 1.70125 3.76625 1 4 C0.67 4.99 0.34 5.98 0 7 C-0.93423645 3.98968256 -1.04449911 3.13349732 0 0 Z " fill="#FBFBF9" transform="translate(229,305)"/>
<path d="M0 0 C2.31 0 4.62 0 7 0 C7.33 0.66 7.66 1.32 8 2 C7.0625 4.625 7.0625 4.625 6 7 C4 4 4 4 4 1 C2.68 0.67 1.36 0.34 0 0 Z " fill="#AD9A9A" transform="translate(256,285)"/>
<path d="M0 0 C0.66 0.99 1.32 1.98 2 3 C0.71034824 4.37562854 -0.62689293 5.70766393 -2 7 C-2.66 7 -3.32 7 -4 7 C-4.33 7.66 -4.66 8.32 -5 9 C-4.67 7.35 -4.34 5.7 -4 4 C-2.68 3.67 -1.36 3.34 0 3 C0 2.01 0 1.02 0 0 Z " fill="#D2C9C7" transform="translate(271,258)"/>
<path d="M0 0 C1.32 0 2.64 0 4 0 C4 1.98 4 3.96 4 6 C3.01 6 2.02 6 1 6 C0.67 4.02 0.34 2.04 0 0 Z " fill="#FCF3E4" transform="translate(231,249)"/>
<path d="M0 0 C4.62 0 9.24 0 14 0 C14 0.99 14 1.98 14 3 C13.01 2.67 12.02 2.34 11 2 C9.10529184 1.9314505 7.2083166 1.91519628 5.3125 1.9375 C4.31863281 1.94652344 3.32476562 1.95554688 2.30078125 1.96484375 C1.54152344 1.97644531 0.78226562 1.98804688 0 2 C0 1.34 0 0.68 0 0 Z " fill="#DECACC" transform="translate(294,231)"/>
<path d="M0 0 C1.65 0.33 3.3 0.66 5 1 C5 2.65 5 4.3 5 6 C4.34 5.34 3.68 4.68 3 4 C3.33 3.34 3.66 2.68 4 2 C2.35 2.66 0.7 3.32 -1 4 C-1.33 3.34 -1.66 2.68 -2 2 C-1.34 2 -0.68 2 0 2 C0 1.34 0 0.68 0 0 Z " fill="#AF9A9B" transform="translate(236,229)"/>
<path d="M0 0 C0 2.31 0 4.62 0 7 C-0.99 7.495 -0.99 7.495 -2 8 C-2.66 7.34 -3.32 6.68 -4 6 C-3.34 6 -2.68 6 -2 6 C-2 5.01 -2 4.02 -2 3 C-2.99 3 -3.98 3 -5 3 C-3.7124791 0.4249582 -2.85933002 0 0 0 Z " fill="#968786" transform="translate(249,223)"/>
<path d="M0 0 C0.33 0 0.66 0 1 0 C1 1.98 1 3.96 1 6 C2.32 6 3.64 6 5 6 C4.67 6.99 4.34 7.98 4 9 C2.68 9 1.36 9 0 9 C0 6.03 0 3.06 0 0 Z " fill="#B09B9B" transform="translate(201,189)"/>
<path d="M0 0 C1.98 0.99 1.98 0.99 4 2 C4 3.32 4 4.64 4 6 C2.68 5.34 1.36 4.68 0 4 C0 2.68 0 1.36 0 0 Z " fill="#E6E3DF" transform="translate(194,249)"/>
<path d="M0 0 C0 0.66 0 1.32 0 2 C-3.96 2 -7.92 2 -12 2 C-12 1.67 -12 1.34 -12 1 C-10.37681021 0.63762737 -8.7513642 0.28534843 -7.125 -0.0625 C-6.22007812 -0.25972656 -5.31515625 -0.45695313 -4.3828125 -0.66015625 C-2 -1 -2 -1 0 0 Z " fill="#9E8285" transform="translate(236,242)"/>
<path d="M0 0 C0.66 0.99 1.32 1.98 2 3 C1.34 3.66 0.68 4.32 0 5 C0.33 5.66 0.66 6.32 1 7 C-1.475 8.485 -1.475 8.485 -4 10 C-2.8905928 6.51329166 -1.73662334 3.22515763 0 0 Z " fill="#CABABC" transform="translate(242,172)"/>
<path d="M0 0 C1.32 0.66 2.64 1.32 4 2 C2 4 0 6 -2 8 C-2.20086443 4.28400809 -2.1519437 3.22791555 0 0 Z " fill="#D0C1C2" transform="translate(185,171)"/>
<path d="M0 0 C0.66 1.32 1.32 2.64 2 4 C0.02 4.99 0.02 4.99 -2 6 C-2 4.35 -2 2.7 -2 1 C-1.34 0.67 -0.68 0.34 0 0 Z " fill="#F8F0ED" transform="translate(251,251)"/>
<path d="M0 0 C1.32 0 2.64 0 4 0 C4 1.32 4 2.64 4 4 C2.68 4 1.36 4 0 4 C-0.33 3.01 -0.66 2.02 -1 1 C-0.67 0.67 -0.34 0.34 0 0 Z " fill="#F8EDED" transform="translate(257,243)"/>
<path d="M0 0 C0.66 0 1.32 0 2 0 C2.66 1.98 3.32 3.96 4 6 C2.68 6 1.36 6 0 6 C0 4.02 0 2.04 0 0 Z " fill="#FCF4F3" transform="translate(267,236)"/>
<path d="M0 0 C1.32 0.33 2.64 0.66 4 1 C4.33 2.32 4.66 3.64 5 5 C4.01 5 3.02 5 2 5 C1.34 3.35 0.68 1.7 0 0 Z " fill="#C5AEAD" transform="translate(240,227)"/>
<path d="M0 0 C0.99 0.33 1.98 0.66 3 1 C3.6875 3.0625 3.6875 3.0625 4 5 C1.03 4.505 1.03 4.505 -2 4 C-1.34 2.68 -0.68 1.36 0 0 Z " fill="#D5BABF" transform="translate(250,159)"/>
</svg>
